<?xml version='1.0' encoding='us-ascii'?>
<svg height="348.90mm" viewBox="0.0 0.0 361.90 348.90" width="361.90mm" xmlns="http://www.w3.org/2000/svg" xmlns:cc="http://creativecommons.org/ns#" xmlns:dc="http://purl.org/dc/elements/1.1/" xmlns:inkscape="http://www.inkscape.org/namespaces/inkscape" xmlns:rdf="http://www.w3.org/1999/02/22-rdf-syntax-ns#" xmlns:svg="http://www.w3.org/2000/svg" xmlns:xlink="http://www.w3.org/1999/xlink">
<!--
HingeBox - Box with lid attached by cabinet hinges

Created with Boxes.py (https://festi.info/boxes.py)
Creation date: 2020-07-31 02:05:11
Command line (remove spaces between dashes): boxes HingeBox - -FingerJoint_angle=90.0 - -FingerJoint_style=rectangular - -FingerJoint_surroundingspaces=2.0 - -FingerJoint_edge_width=1.0 - -FingerJoint_finger=2.0 - -FingerJoint_play=0.0 - -FingerJoint_space=2.0 - -FingerJoint_width=1.0 - -CabinetHinge_bore=3.2 - -CabinetHinge_eyes_per_hinge=5 - -CabinetHinge_hinges=2 - -CabinetHinge_style=inside - -CabinetHinge_eye=1.5 - -CabinetHinge_play=0.05 - -CabinetHinge_spacing=2.0 - -x=170.0 - -y=80.0 - -h=80.0 - -outside=0 - -outside=1 - -lidheight=20.0 - -splitlid=0.0 - -thickness=3.0 - -format=svg - -tabs=0.0 - -debug=0 - -reference=100 - -burn=0.1
Url: http://localhost:8008/HingeBox?FingerJoint_angle=90.0&FingerJoint_style=rectangular&FingerJoint_surroundingspaces=2.0&FingerJoint_edge_width=1.0&FingerJoint_finger=2.0&FingerJoint_play=0.0&FingerJoint_space=2.0&FingerJoint_width=1.0&CabinetHinge_bore=3.2&CabinetHinge_eyes_per_hinge=5&CabinetHinge_hinges=2&CabinetHinge_style=inside&CabinetHinge_eye=1.5&CabinetHinge_play=0.05&CabinetHinge_spacing=2.0&x=170.0&y=80.0&h=80.0&outside=0&outside=1&lidheight=20.0&splitlid=0.0&thickness=3.0&format=svg&tabs=0.0&debug=0&reference=100&burn=0.1&render=1
SettingsUrl: http://localhost:8008/HingeBox?FingerJoint_angle=90.0&FingerJoint_style=rectangular&FingerJoint_surroundingspaces=2.0&FingerJoint_edge_width=1.0&FingerJoint_finger=2.0&FingerJoint_play=0.0&FingerJoint_space=2.0&FingerJoint_width=1.0&CabinetHinge_bore=3.2&CabinetHinge_eyes_per_hinge=5&CabinetHinge_hinges=2&CabinetHinge_style=inside&CabinetHinge_eye=1.5&CabinetHinge_play=0.05&CabinetHinge_spacing=2.0&x=170.0&y=80.0&h=80.0&outside=0&outside=1&lidheight=20.0&splitlid=0.0&thickness=3.0&format=svg&tabs=0.0&debug=0&reference=100&burn=0.1
-->
<title>HingeBox</title>
<metadata>
<rdf:RDF><cc:Work>
<dc:title>Box - HingeBox</dc:title>
<dc:date>2020-07-31 02:05:11</dc:date>
<dc:source>http://localhost:8008/HingeBox?FingerJoint_angle=90.0&amp;FingerJoint_style=rectangular&amp;FingerJoint_surroundingspaces=2.0&amp;FingerJoint_edge_width=1.0&amp;FingerJoint_finger=2.0&amp;FingerJoint_play=0.0&amp;FingerJoint_space=2.0&amp;FingerJoint_width=1.0&amp;CabinetHinge_bore=3.2&amp;CabinetHinge_eyes_per_hinge=5&amp;CabinetHinge_hinges=2&amp;CabinetHinge_style=inside&amp;CabinetHinge_eye=1.5&amp;CabinetHinge_play=0.05&amp;CabinetHinge_spacing=2.0&amp;x=170.0&amp;y=80.0&amp;h=80.0&amp;outside=0&amp;outside=1&amp;lidheight=20.0&amp;splitlid=0.0&amp;thickness=3.0&amp;format=svg&amp;tabs=0.0&amp;debug=0&amp;reference=100&amp;burn=0.1&amp;render=1</dc:source>
<dc:description>Box with lid attached by cabinet hinges

Created with Boxes.py (https://festi.info/boxes.py)
Command line: boxes HingeBox --FingerJoint_angle=90.0 --FingerJoint_style=rectangular --FingerJoint_surroundingspaces=2.0 --FingerJoint_edge_width=1.0 --FingerJoint_finger=2.0 --FingerJoint_play=0.0 --FingerJoint_space=2.0 --FingerJoint_width=1.0 --CabinetHinge_bore=3.2 --CabinetHinge_eyes_per_hinge=5 --CabinetHinge_hinges=2 --CabinetHinge_style=inside --CabinetHinge_eye=1.5 --CabinetHinge_play=0.05 --CabinetHinge_spacing=2.0 --x=170.0 --y=80.0 --h=80.0 --outside=0 --outside=1 --lidheight=20.0 --splitlid=0.0 --thickness=3.0 --format=svg --tabs=0.0 --debug=0 --reference=100 --burn=0.1
Url: http://localhost:8008/HingeBox?FingerJoint_angle=90.0&amp;FingerJoint_style=rectangular&amp;FingerJoint_surroundingspaces=2.0&amp;FingerJoint_edge_width=1.0&amp;FingerJoint_finger=2.0&amp;FingerJoint_play=0.0&amp;FingerJoint_space=2.0&amp;FingerJoint_width=1.0&amp;CabinetHinge_bore=3.2&amp;CabinetHinge_eyes_per_hinge=5&amp;CabinetHinge_hinges=2&amp;CabinetHinge_style=inside&amp;CabinetHinge_eye=1.5&amp;CabinetHinge_play=0.05&amp;CabinetHinge_spacing=2.0&amp;x=170.0&amp;y=80.0&amp;h=80.0&amp;outside=0&amp;outside=1&amp;lidheight=20.0&amp;splitlid=0.0&amp;thickness=3.0&amp;format=svg&amp;tabs=0.0&amp;debug=0&amp;reference=100&amp;burn=0.1&amp;render=1
SettingsUrl: http://localhost:8008/HingeBox?FingerJoint_angle=90.0&amp;FingerJoint_style=rectangular&amp;FingerJoint_surroundingspaces=2.0&amp;FingerJoint_edge_width=1.0&amp;FingerJoint_finger=2.0&amp;FingerJoint_play=0.0&amp;FingerJoint_space=2.0&amp;FingerJoint_width=1.0&amp;CabinetHinge_bore=3.2&amp;CabinetHinge_eyes_per_hinge=5&amp;CabinetHinge_hinges=2&amp;CabinetHinge_style=inside&amp;CabinetHinge_eye=1.5&amp;CabinetHinge_play=0.05&amp;CabinetHinge_spacing=2.0&amp;x=170.0&amp;y=80.0&amp;h=80.0&amp;outside=0&amp;outside=1&amp;lidheight=20.0&amp;splitlid=0.0&amp;thickness=3.0&amp;format=svg&amp;tabs=0.0&amp;debug=0&amp;reference=100&amp;burn=0.1
</dc:description>
</cc:Work></rdf:RDF></metadata>
<g id="p-0" style="fill:none;stroke-linecap:round;stroke-linejoin:round;">
  <path d="M 10.100 338.900 H 110.100 V 328.900 H 10.100 V 338.900 Z" stroke="rgb(0,0,0)" stroke-width="0.20" />
  <text alignment-baseline="hanging" font-size="10px" style="font-family: sans-serif ; font-weight: normal; font-style: normal; fill: rgb(0,0,0)" text-anchor="middle" transform="matrix( 1.000 0.000 0.000 1.000 60.100 328.900 )">100mm</text>
</g>
<g id="p-1" style="fill:none;stroke-linecap:round;stroke-linejoin:round;">
  <path d="M 13.100 327.200 H 20.100 C 20.155 327.200 20.200 327.155 20.200 327.100 V 324.200 C 20.200 324.100 20.100 324.200 20.200 324.200 H 26.000 C 26.100 324.200 26.000 324.100 26.000 324.200 V 327.100 C 26.000 327.155 26.045 327.200 26.100 327.200 H 32.100 C 32.155 327.200 32.200 327.155 32.200 327.100 V 324.200 C 32.200 324.100 32.100 324.200 32.200 324.200 H 38.000 C 38.100 324.200 38.000 324.100 38.000 324.200 V 327.100 C 38.000 327.155 38.045 327.200 38.100 327.200 H 44.100 C 44.155 327.200 44.200 327.155 44.200 327.100 V 324.200 C 44.200 324.100 44.100 324.200 44.200 324.200 H 50.000 C 50.100 324.200 50.000 324.100 50.000 324.200 V 327.100 C 50.000 327.155 50.045 327.200 50.100 327.200 H 56.100 C 56.155 327.200 56.200 327.155 56.200 327.100 V 324.200 C 56.200 324.100 56.100 324.200 56.200 324.200 H 62.000 C 62.100 324.200 62.000 324.100 62.000 324.200 V 327.100 C 62.000 327.155 62.045 327.200 62.100 327.200 H 68.100 C 68.155 327.200 68.200 327.155 68.200 327.100 V 324.200 C 68.200 324.100 68.100 324.200 68.200 324.200 H 74.000 C 74.100 324.200 74.000 324.100 74.000 324.200 V 327.100 C 74.000 327.155 74.045 327.200 74.100 327.200 H 80.100 C 80.155 327.200 80.200 327.155 80.200 327.100 V 324.200 C 80.200 324.100 80.100 324.200 80.200 324.200 H 86.000 C 86.100 324.200 86.000 324.100 86.000 324.200 V 327.100 C 86.000 327.155 86.045 327.200 86.100 327.200 H 92.100 C 92.155 327.200 92.200 327.155 92.200 327.100 V 324.200 C 92.200 324.100 92.100 324.200 92.200 324.200 H 98.000 C 98.100 324.200 98.000 324.100 98.000 324.200 V 327.100 C 98.000 327.155 98.045 327.200 98.100 327.200 H 104.100 C 104.155 327.200 104.200 327.155 104.200 327.100 V 324.200 C 104.200 324.100 104.100 324.200 104.200 324.200 H 110.000 C 110.100 324.200 110.000 324.100 110.000 324.200 V 327.100 C 110.000 327.155 110.045 327.200 110.100 327.200 H 116.100 C 116.155 327.200 116.200 327.155 116.200 327.100 V 324.200 C 116.200 324.100 116.100 324.200 116.200 324.200 H 122.000 C 122.100 324.200 122.000 324.100 122.000 324.200 V 327.100 C 122.000 327.155 122.045 327.200 122.100 327.200 H 128.100 C 128.155 327.200 128.200 327.155 128.200 327.100 V 324.200 C 128.200 324.100 128.100 324.200 128.200 324.200 H 134.000 C 134.100 324.200 134.000 324.100 134.000 324.200 V 327.100 C 134.000 327.155 134.045 327.200 134.100 327.200 H 140.100 C 140.155 327.200 140.200 327.155 140.200 327.100 V 324.200 C 140.200 324.100 140.100 324.200 140.200 324.200 H 146.000 C 146.100 324.200 146.000 324.100 146.000 324.200 V 327.100 C 146.000 327.155 146.045 327.200 146.100 327.200 H 152.100 C 152.155 327.200 152.200 327.155 152.200 327.100 V 324.200 C 152.200 324.100 152.100 324.200 152.200 324.200 H 158.000 C 158.100 324.200 158.000 324.100 158.000 324.200 V 327.100 C 158.000 327.155 158.045 327.200 158.100 327.200 H 164.100 C 164.155 327.200 164.200 327.155 164.200 327.100 V 324.200 C 164.200 324.100 164.100 324.200 164.200 324.200 H 170.000 C 170.100 324.200 170.000 324.100 170.000 324.200 V 327.100 C 170.000 327.155 170.045 327.200 170.100 327.200 H 177.100 H 180.100 C 180.155 327.200 180.200 327.155 180.200 327.100 V 324.100 V 314.100 C 180.200 314.045 180.155 314.000 180.100 314.000 H 177.200 C 177.100 314.000 177.200 314.100 177.200 314.000 V 308.200 C 177.200 308.100 177.100 308.200 177.200 308.200 H 180.100 C 180.155 308.200 180.200 308.155 180.200 308.100 V 302.100 C 180.200 302.045 180.155 302.000 180.100 302.000 H 177.200 C 177.100 302.000 177.200 302.100 177.200 302.000 V 296.200 C 177.200 296.100 177.100 296.200 177.200 296.200 H 180.100 C 180.155 296.200 180.200 296.155 180.200 296.100 V 290.100 C 180.200 290.045 180.155 290.000 180.100 290.000 H 177.200 C 177.100 290.000 177.200 290.100 177.200 290.000 V 284.200 C 177.200 284.100 177.100 284.200 177.200 284.200 H 180.100 C 180.155 284.200 180.200 284.155 180.200 284.100 V 278.100 C 180.200 278.045 180.155 278.000 180.100 278.000 H 177.200 C 177.100 278.000 177.200 278.100 177.200 278.000 V 272.200 C 177.200 272.100 177.100 272.200 177.200 272.200 H 180.100 C 180.155 272.200 180.200 272.155 180.200 272.100 V 266.100 C 180.200 266.045 180.155 266.000 180.100 266.000 H 177.200 C 177.100 266.000 177.200 266.100 177.200 266.000 V 260.200 C 177.200 260.100 177.100 260.200 177.200 260.200 H 180.100 C 180.155 260.200 180.200 260.155 180.200 260.100 V 250.100 C 180.200 250.045 180.155 250.000 180.100 250.000 H 177.100 H 13.100 H 10.100 C 10.045 250.000 10.000 250.045 10.000 250.100 V 260.100 C 10.000 260.155 10.045 260.200 10.100 260.200 H 13.000 C 13.100 260.200 13.000 260.100 13.000 260.200 V 266.000 C 13.000 266.100 13.100 266.000 13.000 266.000 H 10.100 C 10.045 266.000 10.000 266.045 10.000 266.100 V 272.100 C 10.000 272.155 10.045 272.200 10.100 272.200 H 13.000 C 13.100 272.200 13.000 272.100 13.000 272.200 V 278.000 C 13.000 278.100 13.100 278.000 13.000 278.000 H 10.100 C 10.045 278.000 10.000 278.045 10.000 278.100 V 284.100 C 10.000 284.155 10.045 284.200 10.100 284.200 H 13.000 C 13.100 284.200 13.000 284.100 13.000 284.200 V 290.000 C 13.000 290.100 13.100 290.000 13.000 290.000 H 10.100 C 10.045 290.000 10.000 290.045 10.000 290.100 V 296.100 C 10.000 296.155 10.045 296.200 10.100 296.200 H 13.000 C 13.100 296.200 13.000 296.100 13.000 296.200 V 302.000 C 13.000 302.100 13.100 302.000 13.000 302.000 H 10.100 C 10.045 302.000 10.000 302.045 10.000 302.100 V 308.100 C 10.000 308.155 10.045 308.200 10.100 308.200 H 13.000 C 13.100 308.200 13.000 308.100 13.000 308.200 V 314.000 C 13.000 314.100 13.100 314.000 13.000 314.000 H 10.100 C 10.045 314.000 10.000 314.045 10.000 314.100 V 324.100 V 327.100 C 10.000 327.155 10.045 327.200 10.100 327.200 H 13.100 Z" stroke="rgb(0,0,0)" stroke-width="0.20" />
</g>
<g id="p-2" style="fill:none;stroke-linecap:round;stroke-linejoin:round;">
  <path d="M 184.800 327.200 H 194.800 C 194.855 327.200 194.900 327.155 194.900 327.100 V 324.200 C 194.900 324.100 194.800 324.200 194.900 324.200 H 200.700 C 200.800 324.200 200.700 324.100 200.700 324.200 V 327.100 C 200.700 327.155 200.745 327.200 200.800 327.200 H 206.800 C 206.855 327.200 206.900 327.155 206.900 327.100 V 324.200 C 206.900 324.100 206.800 324.200 206.900 324.200 H 212.700 C 212.800 324.200 212.700 324.100 212.700 324.200 V 327.100 C 212.700 327.155 212.745 327.200 212.800 327.200 H 218.800 C 218.855 327.200 218.900 327.155 218.900 327.100 V 324.200 C 218.900 324.100 218.800 324.200 218.900 324.200 H 224.700 C 224.800 324.200 224.700 324.100 224.700 324.200 V 327.100 C 224.700 327.155 224.745 327.200 224.800 327.200 H 230.800 C 230.855 327.200 230.900 327.155 230.900 327.100 V 324.200 C 230.900 324.100 230.800 324.200 230.900 324.200 H 236.700 C 236.800 324.200 236.700 324.100 236.700 324.200 V 327.100 C 236.700 327.155 236.745 327.200 236.800 327.200 H 242.800 C 242.855 327.200 242.900 327.155 242.900 327.100 V 324.200 C 242.900 324.100 242.800 324.200 242.900 324.200 H 248.700 C 248.800 324.200 248.700 324.100 248.700 324.200 V 327.100 C 248.700 327.155 248.745 327.200 248.800 327.200 H 258.800 C 258.855 327.200 258.900 327.155 258.900 327.100 V 324.100 V 314.200 C 258.900 314.100 258.800 314.200 258.900 314.200 H 261.800 C 261.855 314.200 261.900 314.155 261.900 314.100 V 308.100 C 261.900 308.045 261.855 308.000 261.800 308.000 H 258.900 C 258.800 308.000 258.900 308.100 258.900 308.000 V 302.200 C 258.900 302.100 258.800 302.200 258.900 302.200 H 261.800 C 261.855 302.200 261.900 302.155 261.900 302.100 V 296.100 C 261.900 296.045 261.855 296.000 261.800 296.000 H 258.900 C 258.800 296.000 258.900 296.100 258.900 296.000 V 290.200 C 258.900 290.100 258.800 290.200 258.900 290.200 H 261.800 C 261.855 290.200 261.900 290.155 261.900 290.100 V 284.100 C 261.900 284.045 261.855 284.000 261.800 284.000 H 258.900 C 258.800 284.000 258.900 284.100 258.900 284.000 V 278.200 C 258.900 278.100 258.800 278.200 258.900 278.200 H 261.800 C 261.855 278.200 261.900 278.155 261.900 278.100 V 272.100 C 261.900 272.045 261.855 272.000 261.800 272.000 H 258.900 C 258.800 272.000 258.900 272.100 258.900 272.000 V 266.200 C 258.900 266.100 258.800 266.200 258.900 266.200 H 261.800 C 261.855 266.200 261.900 266.155 261.900 266.100 V 260.100 C 261.900 260.045 261.855 260.000 261.800 260.000 H 258.900 C 258.800 260.000 258.900 260.100 258.900 260.000 V 250.100 C 258.900 250.045 258.855 250.000 258.800 250.000 H 184.800 C 184.745 250.000 184.700 250.045 184.700 250.100 V 260.000 C 184.700 260.100 184.800 260.000 184.700 260.000 H 181.800 C 181.745 260.000 181.700 260.045 181.700 260.100 V 266.100 C 181.700 266.155 181.745 266.200 181.800 266.200 H 184.700 C 184.800 266.200 184.700 266.100 184.700 266.200 V 272.000 C 184.700 272.100 184.800 272.000 184.700 272.000 H 181.800 C 181.745 272.000 181.700 272.045 181.700 272.100 V 278.100 C 181.700 278.155 181.745 278.200 181.800 278.200 H 184.700 C 184.800 278.200 184.700 278.100 184.700 278.200 V 284.000 C 184.700 284.100 184.800 284.000 184.700 284.000 H 181.800 C 181.745 284.000 181.700 284.045 181.700 284.100 V 290.100 C 181.700 290.155 181.745 290.200 181.800 290.200 H 184.700 C 184.800 290.200 184.700 290.100 184.700 290.200 V 296.000 C 184.700 296.100 184.800 296.000 184.700 296.000 H 181.800 C 181.745 296.000 181.700 296.045 181.700 296.100 V 302.100 C 181.700 302.155 181.745 302.200 181.800 302.200 H 184.700 C 184.800 302.200 184.700 302.100 184.700 302.200 V 308.000 C 184.700 308.100 184.800 308.000 184.700 308.000 H 181.800 C 181.745 308.000 181.700 308.045 181.700 308.100 V 314.100 C 181.700 314.155 181.745 314.200 181.800 314.200 H 184.700 C 184.800 314.200 184.700 314.100 184.700 314.200 V 324.100 V 327.100 C 184.700 327.155 184.745 327.200 184.800 327.200 Z" stroke="rgb(0,0,0)" stroke-width="0.20" />
</g>
<g id="p-3" style="fill:none;stroke-linecap:round;stroke-linejoin:round;">
  <path d="M 184.800 248.500 H 194.800 C 194.855 248.500 194.900 248.455 194.900 248.400 V 245.500 C 194.900 245.400 194.800 245.500 194.900 245.500 H 200.700 C 200.800 245.500 200.700 245.400 200.700 245.500 V 248.400 C 200.700 248.455 200.745 248.500 200.800 248.500 H 206.800 C 206.855 248.500 206.900 248.455 206.900 248.400 V 245.500 C 206.900 245.400 206.800 245.500 206.900 245.500 H 212.700 C 212.800 245.500 212.700 245.400 212.700 245.500 V 248.400 C 212.700 248.455 212.745 248.500 212.800 248.500 H 218.800 C 218.855 248.500 218.900 248.455 218.900 248.400 V 245.500 C 218.900 245.400 218.800 245.500 218.900 245.500 H 224.700 C 224.800 245.500 224.700 245.400 224.700 245.500 V 248.400 C 224.700 248.455 224.745 248.500 224.800 248.500 H 230.800 C 230.855 248.500 230.900 248.455 230.900 248.400 V 245.500 C 230.900 245.400 230.800 245.500 230.900 245.500 H 236.700 C 236.800 245.500 236.700 245.400 236.700 245.500 V 248.400 C 236.700 248.455 236.745 248.500 236.800 248.500 H 242.800 C 242.855 248.500 242.900 248.455 242.900 248.400 V 245.500 C 242.900 245.400 242.800 245.500 242.900 245.500 H 248.700 C 248.800 245.500 248.700 245.400 248.700 245.500 V 248.400 C 248.700 248.455 248.745 248.500 248.800 248.500 H 258.800 C 258.855 248.500 258.900 248.455 258.900 248.400 V 245.400 V 235.500 C 258.900 235.400 258.800 235.500 258.900 235.500 H 261.800 C 261.855 235.500 261.900 235.455 261.900 235.400 V 229.400 C 261.900 229.345 261.855 229.300 261.800 229.300 H 258.900 C 258.800 229.300 258.900 229.400 258.900 229.300 V 223.500 C 258.900 223.400 258.800 223.500 258.900 223.500 H 261.800 C 261.855 223.500 261.900 223.455 261.900 223.400 V 217.400 C 261.900 217.345 261.855 217.300 261.800 217.300 H 258.900 C 258.800 217.300 258.900 217.400 258.900 217.300 V 211.500 C 258.900 211.400 258.800 211.500 258.900 211.500 H 261.800 C 261.855 211.500 261.900 211.455 261.900 211.400 V 205.400 C 261.900 205.345 261.855 205.300 261.800 205.300 H 258.900 C 258.800 205.300 258.900 205.400 258.900 205.300 V 199.500 C 258.900 199.400 258.800 199.500 258.900 199.500 H 261.800 C 261.855 199.500 261.900 199.455 261.900 199.400 V 193.400 C 261.900 193.345 261.855 193.300 261.800 193.300 H 258.900 C 258.800 193.300 258.900 193.400 258.900 193.300 V 187.500 C 258.900 187.400 258.800 187.500 258.900 187.500 H 261.800 C 261.855 187.500 261.900 187.455 261.900 187.400 V 181.400 C 261.900 181.345 261.855 181.300 261.800 181.300 H 258.900 C 258.800 181.300 258.900 181.400 258.900 181.300 V 171.400 C 258.900 171.345 258.855 171.300 258.800 171.300 H 184.800 C 184.745 171.300 184.700 171.345 184.700 171.400 V 181.300 C 184.700 181.400 184.800 181.300 184.700 181.300 H 181.800 C 181.745 181.300 181.700 181.345 181.700 181.400 V 187.400 C 181.700 187.455 181.745 187.500 181.800 187.500 H 184.700 C 184.800 187.500 184.700 187.400 184.700 187.500 V 193.300 C 184.700 193.400 184.800 193.300 184.700 193.300 H 181.800 C 181.745 193.300 181.700 193.345 181.700 193.400 V 199.400 C 181.700 199.455 181.745 199.500 181.800 199.500 H 184.700 C 184.800 199.500 184.700 199.400 184.700 199.500 V 205.300 C 184.700 205.400 184.800 205.300 184.700 205.300 H 181.800 C 181.745 205.300 181.700 205.345 181.700 205.400 V 211.400 C 181.700 211.455 181.745 211.500 181.800 211.500 H 184.700 C 184.800 211.500 184.700 211.400 184.700 211.500 V 217.300 C 184.700 217.400 184.800 217.300 184.700 217.300 H 181.800 C 181.745 217.300 181.700 217.345 181.700 217.400 V 223.400 C 181.700 223.455 181.745 223.500 181.800 223.500 H 184.700 C 184.800 223.500 184.700 223.400 184.700 223.500 V 229.300 C 184.700 229.400 184.800 229.300 184.700 229.300 H 181.800 C 181.745 229.300 181.700 229.345 181.700 229.400 V 235.400 C 181.700 235.455 181.745 235.500 181.800 235.500 H 184.700 C 184.800 235.500 184.700 235.400 184.700 235.500 V 245.400 V 248.400 C 184.700 248.455 184.745 248.500 184.800 248.500 Z" stroke="rgb(0,0,0)" stroke-width="0.20" />
</g>
<g id="p-4" style="fill:none;stroke-linecap:round;stroke-linejoin:round;">
  <path d="M 13.100 248.500 H 20.100 C 20.155 248.500 20.200 248.455 20.200 248.400 V 245.500 C 20.200 245.400 20.100 245.500 20.200 245.500 H 26.000 C 26.100 245.500 26.000 245.400 26.000 245.500 V 248.400 C 26.000 248.455 26.045 248.500 26.100 248.500 H 32.100 C 32.155 248.500 32.200 248.455 32.200 248.400 V 245.500 C 32.200 245.400 32.100 245.500 32.200 245.500 H 38.000 C 38.100 245.500 38.000 245.400 38.000 245.500 V 248.400 C 38.000 248.455 38.045 248.500 38.100 248.500 H 44.100 C 44.155 248.500 44.200 248.455 44.200 248.400 V 245.500 C 44.200 245.400 44.100 245.500 44.200 245.500 H 50.000 C 50.100 245.500 50.000 245.400 50.000 245.500 V 248.400 C 50.000 248.455 50.045 248.500 50.100 248.500 H 56.100 C 56.155 248.500 56.200 248.455 56.200 248.400 V 245.500 C 56.200 245.400 56.100 245.500 56.200 245.500 H 62.000 C 62.100 245.500 62.000 245.400 62.000 245.500 V 248.400 C 62.000 248.455 62.045 248.500 62.100 248.500 H 68.100 C 68.155 248.500 68.200 248.455 68.200 248.400 V 245.500 C 68.200 245.400 68.100 245.500 68.200 245.500 H 74.000 C 74.100 245.500 74.000 245.400 74.000 245.500 V 248.400 C 74.000 248.455 74.045 248.500 74.100 248.500 H 80.100 C 80.155 248.500 80.200 248.455 80.200 248.400 V 245.500 C 80.200 245.400 80.100 245.500 80.200 245.500 H 86.000 C 86.100 245.500 86.000 245.400 86.000 245.500 V 248.400 C 86.000 248.455 86.045 248.500 86.100 248.500 H 92.100 C 92.155 248.500 92.200 248.455 92.200 248.400 V 245.500 C 92.200 245.400 92.100 245.500 92.200 245.500 H 98.000 C 98.100 245.500 98.000 245.400 98.000 245.500 V 248.400 C 98.000 248.455 98.045 248.500 98.100 248.500 H 104.100 C 104.155 248.500 104.200 248.455 104.200 248.400 V 245.500 C 104.200 245.400 104.100 245.500 104.200 245.500 H 110.000 C 110.100 245.500 110.000 245.400 110.000 245.500 V 248.400 C 110.000 248.455 110.045 248.500 110.100 248.500 H 116.100 C 116.155 248.500 116.200 248.455 116.200 248.400 V 245.500 C 116.200 245.400 116.100 245.500 116.200 245.500 H 122.000 C 122.100 245.500 122.000 245.400 122.000 245.500 V 248.400 C 122.000 248.455 122.045 248.500 122.100 248.500 H 128.100 C 128.155 248.500 128.200 248.455 128.200 248.400 V 245.500 C 128.200 245.400 128.100 245.500 128.200 245.500 H 134.000 C 134.100 245.500 134.000 245.400 134.000 245.500 V 248.400 C 134.000 248.455 134.045 248.500 134.100 248.500 H 140.100 C 140.155 248.500 140.200 248.455 140.200 248.400 V 245.500 C 140.200 245.400 140.100 245.500 140.200 245.500 H 146.000 C 146.100 245.500 146.000 245.400 146.000 245.500 V 248.400 C 146.000 248.455 146.045 248.500 146.100 248.500 H 152.100 C 152.155 248.500 152.200 248.455 152.200 248.400 V 245.500 C 152.200 245.400 152.100 245.500 152.200 245.500 H 158.000 C 158.100 245.500 158.000 245.400 158.000 245.500 V 248.400 C 158.000 248.455 158.045 248.500 158.100 248.500 H 164.100 C 164.155 248.500 164.200 248.455 164.200 248.400 V 245.500 C 164.200 245.400 164.100 245.500 164.200 245.500 H 170.000 C 170.100 245.500 170.000 245.400 170.000 245.500 V 248.400 C 170.000 248.455 170.045 248.500 170.100 248.500 H 177.100 H 180.100 C 180.155 248.500 180.200 248.455 180.200 248.400 V 245.400 V 235.400 C 180.200 235.345 180.155 235.300 180.100 235.300 H 177.200 C 177.100 235.300 177.200 235.400 177.200 235.300 V 229.500 C 177.200 229.400 177.100 229.500 177.200 229.500 H 180.100 C 180.155 229.500 180.200 229.455 180.200 229.400 V 223.400 C 180.200 223.345 180.155 223.300 180.100 223.300 H 177.200 C 177.100 223.300 177.200 223.400 177.200 223.300 V 217.500 C 177.200 217.400 177.100 217.500 177.200 217.500 H 180.100 C 180.155 217.500 180.200 217.455 180.200 217.400 V 211.400 C 180.200 211.345 180.155 211.300 180.100 211.300 H 177.200 C 177.100 211.300 177.200 211.400 177.200 211.300 V 205.500 C 177.200 205.400 177.100 205.500 177.200 205.500 H 180.100 C 180.155 205.500 180.200 205.455 180.200 205.400 V 199.400 C 180.200 199.345 180.155 199.300 180.100 199.300 H 177.200 C 177.100 199.300 177.200 199.400 177.200 199.300 V 193.500 C 177.200 193.400 177.100 193.500 177.200 193.500 H 180.100 C 180.155 193.500 180.200 193.455 180.200 193.400 V 187.400 C 180.200 187.345 180.155 187.300 180.100 187.300 H 177.200 C 177.100 187.300 177.200 187.400 177.200 187.300 V 181.500 C 177.200 181.400 177.100 181.500 177.200 181.500 H 180.100 C 180.155 181.500 180.200 181.455 180.200 181.400 V 171.400 C 180.200 171.345 180.155 171.300 180.100 171.300 H 177.100 H 170.950 C 170.895 171.300 170.850 171.345 170.850 171.400 V 176.050 V 178.800 C 170.850 178.900 170.950 178.800 170.850 178.800 H 168.050 C 167.950 178.800 168.050 178.900 168.050 178.800 V 176.050 C 168.050 175.995 168.005 175.950 167.950 175.950 H 164.650 C 164.595 175.950 164.550 175.995 164.550 176.050 V 178.800 C 164.550 178.900 164.650 178.800 164.550 178.800 H 161.750 C 161.650 178.800 161.750 178.900 161.750 178.800 V 176.050 C 161.750 175.995 161.705 175.950 161.650 175.950 H 158.350 C 158.295 175.950 158.250 175.995 158.250 176.050 V 178.800 C 158.250 178.900 158.350 178.800 158.250 178.800 H 155.450 C 155.350 178.800 155.450 178.900 155.450 178.800 V 176.050 V 171.400 C 155.450 171.345 155.405 171.300 155.350 171.300 H 149.200 H 41.000 H 34.850 C 34.795 171.300 34.750 171.345 34.750 171.400 V 176.050 V 178.800 C 34.750 178.900 34.850 178.800 34.750 178.800 H 31.950 C 31.850 178.800 31.950 178.900 31.950 178.800 V 176.050 C 31.950 175.995 31.905 175.950 31.850 175.950 H 28.550 C 28.495 175.950 28.450 175.995 28.450 176.050 V 178.800 C 28.450 178.900 28.550 178.800 28.450 178.800 H 25.650 C 25.550 178.800 25.650 178.900 25.650 178.800 V 176.050 C 25.650 175.995 25.605 175.950 25.550 175.950 H 22.250 C 22.195 175.950 22.150 175.995 22.150 176.050 V 178.800 C 22.150 178.900 22.250 178.800 22.150 178.800 H 19.350 C 19.250 178.800 19.350 178.900 19.350 178.800 V 176.050 V 171.400 C 19.350 171.345 19.305 171.300 19.250 171.300 H 13.100 H 10.100 C 10.045 171.300 10.000 171.345 10.000 171.400 V 181.400 C 10.000 181.455 10.045 181.500 10.100 181.500 H 13.000 C 13.100 181.500 13.000 181.400 13.000 181.500 V 187.300 C 13.000 187.400 13.100 187.300 13.000 187.300 H 10.100 C 10.045 187.300 10.000 187.345 10.000 187.400 V 193.400 C 10.000 193.455 10.045 193.500 10.100 193.500 H 13.000 C 13.100 193.500 13.000 193.400 13.000 193.500 V 199.300 C 13.000 199.400 13.100 199.300 13.000 199.300 H 10.100 C 10.045 199.300 10.000 199.345 10.000 199.400 V 205.400 C 10.000 205.455 10.045 205.500 10.100 205.500 H 13.000 C 13.100 205.500 13.000 205.400 13.000 205.500 V 211.300 C 13.000 211.400 13.100 211.300 13.000 211.300 H 10.100 C 10.045 211.300 10.000 211.345 10.000 211.400 V 217.400 C 10.000 217.455 10.045 217.500 10.100 217.500 H 13.000 C 13.100 217.500 13.000 217.400 13.000 217.500 V 223.300 C 13.000 223.400 13.100 223.300 13.000 223.300 H 10.100 C 10.045 223.300 10.000 223.345 10.000 223.400 V 229.400 C 10.000 229.455 10.045 229.500 10.100 229.500 H 13.000 C 13.100 229.500 13.000 229.400 13.000 229.500 V 235.300 C 13.000 235.400 13.100 235.300 13.000 235.300 H 10.100 C 10.045 235.300 10.000 235.345 10.000 235.400 V 245.400 V 248.400 C 10.000 248.455 10.045 248.500 10.100 248.500 H 13.100 Z" stroke="rgb(0,0,0)" stroke-width="0.20" />
  <path d="M 169.450 181.900 H 170.850 C 170.950 181.900 170.850 181.800 170.850 181.900 V 184.700 C 170.850 184.800 170.950 184.700 170.850 184.700 H 168.050 C 167.950 184.700 168.050 184.800 168.050 184.700 V 181.900 C 168.050 181.800 167.950 181.900 168.050 181.900 H 169.450 Z" stroke="rgb(0,0,255)" stroke-width="0.20" />
  <path d="M 163.150 181.900 H 164.550 C 164.650 181.900 164.550 181.800 164.550 181.900 V 184.700 C 164.550 184.800 164.650 184.700 164.550 184.700 H 161.750 C 161.650 184.700 161.750 184.800 161.750 184.700 V 181.900 C 161.750 181.800 161.650 181.900 161.750 181.900 H 163.150 Z" stroke="rgb(0,0,255)" stroke-width="0.20" />
  <path d="M 156.850 181.900 H 158.250 C 158.350 181.900 158.250 181.800 158.250 181.900 V 184.700 C 158.250 184.800 158.350 184.700 158.250 184.700 H 155.450 C 155.350 184.700 155.450 184.800 155.450 184.700 V 181.900 C 155.450 181.800 155.350 181.900 155.450 181.900 H 156.850 Z" stroke="rgb(0,0,255)" stroke-width="0.20" />
  <path d="M 33.350 181.900 H 34.750 C 34.850 181.900 34.750 181.800 34.750 181.900 V 184.700 C 34.750 184.800 34.850 184.700 34.750 184.700 H 31.950 C 31.850 184.700 31.950 184.800 31.950 184.700 V 181.900 C 31.950 181.800 31.850 181.900 31.950 181.900 H 33.350 Z" stroke="rgb(0,0,255)" stroke-width="0.20" />
  <path d="M 27.050 181.900 H 28.450 C 28.550 181.900 28.450 181.800 28.450 181.900 V 184.700 C 28.450 184.800 28.550 184.700 28.450 184.700 H 25.650 C 25.550 184.700 25.650 184.800 25.650 184.700 V 181.900 C 25.650 181.800 25.550 181.900 25.650 181.900 H 27.050 Z" stroke="rgb(0,0,255)" stroke-width="0.20" />
  <path d="M 20.750 181.900 H 22.150 C 22.250 181.900 22.150 181.800 22.150 181.900 V 184.700 C 22.150 184.800 22.250 184.700 22.150 184.700 H 19.350 C 19.250 184.700 19.350 184.800 19.350 184.700 V 181.900 C 19.350 181.800 19.250 181.900 19.350 181.900 H 20.750 Z" stroke="rgb(0,0,255)" stroke-width="0.20" />
</g>
<g id="p-5" style="fill:none;stroke-linecap:round;stroke-linejoin:round;">
  <path d="M 23.900 159.200 H 22.500 C 22.400 159.200 22.500 159.300 22.500 159.200 V 156.400 C 22.500 156.300 22.400 156.400 22.500 156.400 H 25.300 C 25.400 156.400 25.300 156.300 25.300 156.400 V 159.200 C 25.300 159.300 25.400 159.200 25.300 159.200 H 23.900 Z" stroke="rgb(0,0,255)" stroke-width="0.20" />
  <path d="M 30.200 159.200 H 28.800 C 28.700 159.200 28.800 159.300 28.800 159.200 V 156.400 C 28.800 156.300 28.700 156.400 28.800 156.400 H 31.600 C 31.700 156.400 31.600 156.300 31.600 156.400 V 159.200 C 31.600 159.300 31.700 159.200 31.600 159.200 H 30.200 Z" stroke="rgb(0,0,255)" stroke-width="0.20" />
  <path d="M 13.100 169.800 H 19.100 C 19.155 169.800 19.200 169.755 19.200 169.700 V 165.050 C 19.200 165.032 19.195 165.015 19.187 165.000 C 19.178 164.985 19.165 164.972 19.150 164.963 C 19.135 164.955 19.118 164.950 19.100 164.950 C 19.082 164.950 19.065 164.955 19.050 164.963 C 19.035 164.972 19.022 164.985 19.013 165.000 C 19.005 165.015 19.000 165.032 19.000 165.050 C 19.000 165.105 19.045 165.150 19.100 165.150 H 22.400 C 22.455 165.150 22.500 165.105 22.500 165.050 V 162.300 C 22.500 162.200 22.400 162.300 22.500 162.300 H 25.300 C 25.400 162.300 25.300 162.200 25.300 162.300 V 165.050 C 25.300 165.105 25.345 165.150 25.400 165.150 H 28.700 C 28.755 165.150 28.800 165.105 28.800 165.050 V 162.300 C 28.800 162.200 28.700 162.300 28.800 162.300 H 31.600 C 31.700 162.300 31.600 162.200 31.600 162.300 V 165.050 C 31.600 165.105 31.645 165.150 31.700 165.150 H 35.000 C 35.055 165.150 35.100 165.105 35.100 165.050 C 35.100 165.032 35.095 165.015 35.087 165.000 C 35.078 164.985 35.065 164.972 35.050 164.963 C 35.035 164.955 35.018 164.950 35.000 164.950 C 34.982 164.950 34.965 164.955 34.950 164.963 C 34.935 164.972 34.922 164.985 34.913 165.000 C 34.905 165.015 34.900 165.032 34.900 165.050 V 169.700 C 34.900 169.755 34.945 169.800 35.000 169.800 H 41.000 H 149.200 H 155.200 C 155.255 169.800 155.300 169.755 155.300 169.700 V 165.050 C 155.300 165.032 155.295 165.015 155.287 165.000 C 155.278 164.985 155.265 164.972 155.250 164.963 C 155.235 164.955 155.218 164.950 155.200 164.950 C 155.182 164.950 155.165 164.955 155.150 164.963 C 155.135 164.972 155.122 164.985 155.113 165.000 C 155.105 165.015 155.100 165.032 155.100 165.050 C 155.100 165.105 155.145 165.150 155.200 165.150 H 158.500 C 158.555 165.150 158.600 165.105 158.600 165.050 V 162.300 C 158.600 162.200 158.500 162.300 158.600 162.300 H 161.400 C 161.500 162.300 161.400 162.200 161.400 162.300 V 165.050 C 161.400 165.105 161.445 165.150 161.500 165.150 H 164.800 C 164.855 165.150 164.900 165.105 164.900 165.050 V 162.300 C 164.900 162.200 164.800 162.300 164.900 162.300 H 167.700 C 167.800 162.300 167.700 162.200 167.700 162.300 V 165.050 C 167.700 165.105 167.745 165.150 167.800 165.150 H 171.100 C 171.155 165.150 171.200 165.105 171.200 165.050 C 171.200 165.032 171.195 165.015 171.187 165.000 C 171.178 164.985 171.165 164.972 171.150 164.963 C 171.135 164.955 171.118 164.950 171.100 164.950 C 171.082 164.950 171.065 164.955 171.050 164.963 C 171.035 164.972 171.022 164.985 171.013 165.000 C 171.005 165.015 171.000 165.032 171.000 165.050 V 169.700 C 171.000 169.755 171.045 169.800 171.100 169.800 H 177.100 H 180.100 C 180.155 169.800 180.200 169.755 180.200 169.700 V 162.700 C 180.200 162.645 180.155 162.600 180.100 162.600 H 177.200 C 177.100 162.600 177.200 162.700 177.200 162.600 V 156.800 C 177.200 156.700 177.100 156.800 177.200 156.800 H 180.100 C 180.155 156.800 180.200 156.755 180.200 156.700 V 149.700 V 146.700 C 180.200 146.645 180.155 146.600 180.100 146.600 H 177.100 H 170.100 C 170.045 146.600 170.000 146.645 170.000 146.700 V 149.600 C 170.000 149.700 170.100 149.600 170.000 149.600 H 164.200 C 164.100 149.600 164.200 149.700 164.200 149.600 V 146.700 C 164.200 146.645 164.155 146.600 164.100 146.600 H 158.100 C 158.045 146.600 158.000 146.645 158.000 146.700 V 149.600 C 158.000 149.700 158.100 149.600 158.000 149.600 H 152.200 C 152.100 149.600 152.200 149.700 152.200 149.600 V 146.700 C 152.200 146.645 152.155 146.600 152.100 146.600 H 146.100 C 146.045 146.600 146.000 146.645 146.000 146.700 V 149.600 C 146.000 149.700 146.100 149.600 146.000 149.600 H 140.200 C 140.100 149.600 140.200 149.700 140.200 149.600 V 146.700 C 140.200 146.645 140.155 146.600 140.100 146.600 H 134.100 C 134.045 146.600 134.000 146.645 134.000 146.700 V 149.600 C 134.000 149.700 134.100 149.600 134.000 149.600 H 128.200 C 128.100 149.600 128.200 149.700 128.200 149.600 V 146.700 C 128.200 146.645 128.155 146.600 128.100 146.600 H 122.100 C 122.045 146.600 122.000 146.645 122.000 146.700 V 149.600 C 122.000 149.700 122.100 149.600 122.000 149.600 H 116.200 C 116.100 149.600 116.200 149.700 116.200 149.600 V 146.700 C 116.200 146.645 116.155 146.600 116.100 146.600 H 110.100 C 110.045 146.600 110.000 146.645 110.000 146.700 V 149.600 C 110.000 149.700 110.100 149.600 110.000 149.600 H 104.200 C 104.100 149.600 104.200 149.700 104.200 149.600 V 146.700 C 104.200 146.645 104.155 146.600 104.100 146.600 H 98.100 C 98.045 146.600 98.000 146.645 98.000 146.700 V 149.600 C 98.000 149.700 98.100 149.600 98.000 149.600 H 92.200 C 92.100 149.600 92.200 149.700 92.200 149.600 V 146.700 C 92.200 146.645 92.155 146.600 92.100 146.600 H 86.100 C 86.045 146.600 86.000 146.645 86.000 146.700 V 149.600 C 86.000 149.700 86.100 149.600 86.000 149.600 H 80.200 C 80.100 149.600 80.200 149.700 80.200 149.600 V 146.700 C 80.200 146.645 80.155 146.600 80.100 146.600 H 74.100 C 74.045 146.600 74.000 146.645 74.000 146.700 V 149.600 C 74.000 149.700 74.100 149.600 74.000 149.600 H 68.200 C 68.100 149.600 68.200 149.700 68.200 149.600 V 146.700 C 68.200 146.645 68.155 146.600 68.100 146.600 H 62.100 C 62.045 146.600 62.000 146.645 62.000 146.700 V 149.600 C 62.000 149.700 62.100 149.600 62.000 149.600 H 56.200 C 56.100 149.600 56.200 149.700 56.200 149.600 V 146.700 C 56.200 146.645 56.155 146.600 56.100 146.600 H 50.100 C 50.045 146.600 50.000 146.645 50.000 146.700 V 149.600 C 50.000 149.700 50.100 149.600 50.000 149.600 H 44.200 C 44.100 149.600 44.200 149.700 44.200 149.600 V 146.700 C 44.200 146.645 44.155 146.600 44.100 146.600 H 38.100 C 38.045 146.600 38.000 146.645 38.000 146.700 V 149.600 C 38.000 149.700 38.100 149.600 38.000 149.600 H 32.200 C 32.100 149.600 32.200 149.700 32.200 149.600 V 146.700 C 32.200 146.645 32.155 146.600 32.100 146.600 H 26.100 C 26.045 146.600 26.000 146.645 26.000 146.700 V 149.600 C 26.000 149.700 26.100 149.600 26.000 149.600 H 20.200 C 20.100 149.600 20.200 149.700 20.200 149.600 V 146.700 C 20.200 146.645 20.155 146.600 20.100 146.600 H 13.100 H 10.100 C 10.045 146.600 10.000 146.645 10.000 146.700 V 149.700 V 156.700 C 10.000 156.755 10.045 156.800 10.100 156.800 H 13.000 C 13.100 156.800 13.000 156.700 13.000 156.800 V 162.600 C 13.000 162.700 13.100 162.600 13.000 162.600 H 10.100 C 10.045 162.600 10.000 162.645 10.000 162.700 V 169.700 C 10.000 169.755 10.045 169.800 10.100 169.800 H 13.100 Z" stroke="rgb(0,0,0)" stroke-width="0.20" />
  <path d="M 160.000 159.200 H 158.600 C 158.500 159.200 158.600 159.300 158.600 159.200 V 156.400 C 158.600 156.300 158.500 156.400 158.600 156.400 H 161.400 C 161.500 156.400 161.400 156.300 161.400 156.400 V 159.200 C 161.400 159.300 161.500 159.200 161.400 159.200 H 160.000 Z" stroke="rgb(0,0,255)" stroke-width="0.20" />
  <path d="M 166.300 159.200 H 164.900 C 164.800 159.200 164.900 159.300 164.900 159.200 V 156.400 C 164.900 156.300 164.800 156.400 164.900 156.400 H 167.700 C 167.800 156.400 167.700 156.300 167.700 156.400 V 159.200 C 167.700 159.300 167.800 159.200 167.700 159.200 H 166.300 Z" stroke="rgb(0,0,255)" stroke-width="0.20" />
</g>
<g id="p-6" style="fill:none;stroke-linecap:round;stroke-linejoin:round;">
  <path d="M 184.800 169.800 H 258.800 C 258.855 169.800 258.900 169.755 258.900 169.700 V 162.800 C 258.900 162.700 258.800 162.800 258.900 162.800 H 261.800 C 261.855 162.800 261.900 162.755 261.900 162.700 V 156.700 C 261.900 156.645 261.855 156.600 261.800 156.600 H 258.900 C 258.800 156.600 258.900 156.700 258.900 156.600 V 149.700 V 146.700 C 258.900 146.645 258.855 146.600 258.800 146.600 H 248.800 C 248.745 146.600 248.700 146.645 248.700 146.700 V 149.600 C 248.700 149.700 248.800 149.600 248.700 149.600 H 242.900 C 242.800 149.600 242.900 149.700 242.900 149.600 V 146.700 C 242.900 146.645 242.855 146.600 242.800 146.600 H 236.800 C 236.745 146.600 236.700 146.645 236.700 146.700 V 149.600 C 236.700 149.700 236.800 149.600 236.700 149.600 H 230.900 C 230.800 149.600 230.900 149.700 230.900 149.600 V 146.700 C 230.900 146.645 230.855 146.600 230.800 146.600 H 224.800 C 224.745 146.600 224.700 146.645 224.700 146.700 V 149.600 C 224.700 149.700 224.800 149.600 224.700 149.600 H 218.900 C 218.800 149.600 218.900 149.700 218.900 149.600 V 146.700 C 218.900 146.645 218.855 146.600 218.800 146.600 H 212.800 C 212.745 146.600 212.700 146.645 212.700 146.700 V 149.600 C 212.700 149.700 212.800 149.600 212.700 149.600 H 206.900 C 206.800 149.600 206.900 149.700 206.900 149.600 V 146.700 C 206.900 146.645 206.855 146.600 206.800 146.600 H 200.800 C 200.745 146.600 200.700 146.645 200.700 146.700 V 149.600 C 200.700 149.700 200.800 149.600 200.700 149.600 H 194.900 C 194.800 149.600 194.900 149.700 194.900 149.600 V 146.700 C 194.900 146.645 194.855 146.600 194.800 146.600 H 184.800 C 184.745 146.600 184.700 146.645 184.700 146.700 V 149.700 V 156.600 C 184.700 156.700 184.800 156.600 184.700 156.600 H 181.800 C 181.745 156.600 181.700 156.645 181.700 156.700 V 162.700 C 181.700 162.755 181.745 162.800 181.800 162.800 H 184.700 C 184.800 162.800 184.700 162.700 184.700 162.800 V 169.700 C 184.700 169.755 184.745 169.800 184.800 169.800 Z" stroke="rgb(0,0,0)" stroke-width="0.20" />
</g>
<g id="p-7" style="fill:none;stroke-linecap:round;stroke-linejoin:round;">
  <path d="M 184.800 145.100 H 258.800 C 258.855 145.100 258.900 145.055 258.900 145.000 V 138.100 C 258.900 138.000 258.800 138.100 258.900 138.100 H 261.800 C 261.855 138.100 261.900 138.055 261.900 138.000 V 132.000 C 261.900 131.945 261.855 131.900 261.800 131.900 H 258.900 C 258.800 131.900 258.900 132.000 258.900 131.900 V 125.000 V 122.000 C 258.900 121.945 258.855 121.900 258.800 121.900 H 248.800 C 248.745 121.900 248.700 121.945 248.700 122.000 V 124.900 C 248.700 125.000 248.800 124.900 248.700 124.900 H 242.900 C 242.800 124.900 242.900 125.000 242.900 124.900 V 122.000 C 242.900 121.945 242.855 121.900 242.800 121.900 H 236.800 C 236.745 121.900 236.700 121.945 236.700 122.000 V 124.900 C 236.700 125.000 236.800 124.900 236.700 124.900 H 230.900 C 230.800 124.900 230.900 125.000 230.900 124.900 V 122.000 C 230.900 121.945 230.855 121.900 230.800 121.900 H 224.800 C 224.745 121.900 224.700 121.945 224.700 122.000 V 124.900 C 224.700 125.000 224.800 124.900 224.700 124.900 H 218.900 C 218.800 124.900 218.900 125.000 218.900 124.900 V 122.000 C 218.900 121.945 218.855 121.900 218.800 121.900 H 212.800 C 212.745 121.900 212.700 121.945 212.700 122.000 V 124.900 C 212.700 125.000 212.800 124.900 212.700 124.900 H 206.900 C 206.800 124.900 206.900 125.000 206.900 124.900 V 122.000 C 206.900 121.945 206.855 121.900 206.800 121.900 H 200.800 C 200.745 121.900 200.700 121.945 200.700 122.000 V 124.900 C 200.700 125.000 200.800 124.900 200.700 124.900 H 194.900 C 194.800 124.900 194.900 125.000 194.900 124.900 V 122.000 C 194.900 121.945 194.855 121.900 194.800 121.900 H 184.800 C 184.745 121.900 184.700 121.945 184.700 122.000 V 125.000 V 131.900 C 184.700 132.000 184.800 131.900 184.700 131.900 H 181.800 C 181.745 131.900 181.700 131.945 181.700 132.000 V 138.000 C 181.700 138.055 181.745 138.100 181.800 138.100 H 184.700 C 184.800 138.100 184.700 138.000 184.700 138.100 V 145.000 C 184.700 145.055 184.745 145.100 184.800 145.100 Z" stroke="rgb(0,0,0)" stroke-width="0.20" />
</g>
<g id="p-8" style="fill:none;stroke-linecap:round;stroke-linejoin:round;">
  <path d="M 13.100 145.100 H 177.100 H 180.100 C 180.155 145.100 180.200 145.055 180.200 145.000 V 138.000 C 180.200 137.945 180.155 137.900 180.100 137.900 H 177.200 C 177.100 137.900 177.200 138.000 177.200 137.900 V 132.100 C 177.200 132.000 177.100 132.100 177.200 132.100 H 180.100 C 180.155 132.100 180.200 132.055 180.200 132.000 V 125.000 V 122.000 C 180.200 121.945 180.155 121.900 180.100 121.900 H 177.100 H 170.100 C 170.045 121.900 170.000 121.945 170.000 122.000 V 124.900 C 170.000 125.000 170.100 124.900 170.000 124.900 H 164.200 C 164.100 124.900 164.200 125.000 164.200 124.900 V 122.000 C 164.200 121.945 164.155 121.900 164.100 121.900 H 158.100 C 158.045 121.900 158.000 121.945 158.000 122.000 V 124.900 C 158.000 125.000 158.100 124.900 158.000 124.900 H 152.200 C 152.100 124.900 152.200 125.000 152.200 124.900 V 122.000 C 152.200 121.945 152.155 121.900 152.100 121.900 H 146.100 C 146.045 121.900 146.000 121.945 146.000 122.000 V 124.900 C 146.000 125.000 146.100 124.900 146.000 124.900 H 140.200 C 140.100 124.900 140.200 125.000 140.200 124.900 V 122.000 C 140.200 121.945 140.155 121.900 140.100 121.900 H 134.100 C 134.045 121.900 134.000 121.945 134.000 122.000 V 124.900 C 134.000 125.000 134.100 124.900 134.000 124.900 H 128.200 C 128.100 124.900 128.200 125.000 128.200 124.900 V 122.000 C 128.200 121.945 128.155 121.900 128.100 121.900 H 122.100 C 122.045 121.900 122.000 121.945 122.000 122.000 V 124.900 C 122.000 125.000 122.100 124.900 122.000 124.900 H 116.200 C 116.100 124.900 116.200 125.000 116.200 124.900 V 122.000 C 116.200 121.945 116.155 121.900 116.100 121.900 H 110.100 C 110.045 121.900 110.000 121.945 110.000 122.000 V 124.900 C 110.000 125.000 110.100 124.900 110.000 124.900 H 104.200 C 104.100 124.900 104.200 125.000 104.200 124.900 V 122.000 C 104.200 121.945 104.155 121.900 104.100 121.900 H 98.100 C 98.045 121.900 98.000 121.945 98.000 122.000 V 124.900 C 98.000 125.000 98.100 124.900 98.000 124.900 H 92.200 C 92.100 124.900 92.200 125.000 92.200 124.900 V 122.000 C 92.200 121.945 92.155 121.900 92.100 121.900 H 86.100 C 86.045 121.900 86.000 121.945 86.000 122.000 V 124.900 C 86.000 125.000 86.100 124.900 86.000 124.900 H 80.200 C 80.100 124.900 80.200 125.000 80.200 124.900 V 122.000 C 80.200 121.945 80.155 121.900 80.100 121.900 H 74.100 C 74.045 121.900 74.000 121.945 74.000 122.000 V 124.900 C 74.000 125.000 74.100 124.900 74.000 124.900 H 68.200 C 68.100 124.900 68.200 125.000 68.200 124.900 V 122.000 C 68.200 121.945 68.155 121.900 68.100 121.900 H 62.100 C 62.045 121.900 62.000 121.945 62.000 122.000 V 124.900 C 62.000 125.000 62.100 124.900 62.000 124.900 H 56.200 C 56.100 124.900 56.200 125.000 56.200 124.900 V 122.000 C 56.200 121.945 56.155 121.900 56.100 121.900 H 50.100 C 50.045 121.900 50.000 121.945 50.000 122.000 V 124.900 C 50.000 125.000 50.100 124.900 50.000 124.900 H 44.200 C 44.100 124.900 44.200 125.000 44.200 124.900 V 122.000 C 44.200 121.945 44.155 121.900 44.100 121.900 H 38.100 C 38.045 121.900 38.000 121.945 38.000 122.000 V 124.900 C 38.000 125.000 38.100 124.900 38.000 124.900 H 32.200 C 32.100 124.900 32.200 125.000 32.200 124.900 V 122.000 C 32.200 121.945 32.155 121.900 32.100 121.900 H 26.100 C 26.045 121.900 26.000 121.945 26.000 122.000 V 124.900 C 26.000 125.000 26.100 124.900 26.000 124.900 H 20.200 C 20.100 124.900 20.200 125.000 20.200 124.900 V 122.000 C 20.200 121.945 20.155 121.900 20.100 121.900 H 13.100 H 10.100 C 10.045 121.900 10.000 121.945 10.000 122.000 V 125.000 V 132.000 C 10.000 132.055 10.045 132.100 10.100 132.100 H 13.000 C 13.100 132.100 13.000 132.000 13.000 132.100 V 137.900 C 13.000 138.000 13.100 137.900 13.000 137.900 H 10.100 C 10.045 137.900 10.000 137.945 10.000 138.000 V 145.000 C 10.000 145.055 10.045 145.100 10.100 145.100 H 13.100 Z" stroke="rgb(0,0,0)" stroke-width="0.20" />
</g>
<g id="p-9" style="fill:none;stroke-linecap:round;stroke-linejoin:round;">
  <path d="M 184.800 117.400 H 191.700 C 191.800 117.400 191.700 117.300 191.700 117.400 V 120.300 C 191.700 120.355 191.745 120.400 191.800 120.400 H 197.800 C 197.855 120.400 197.900 120.355 197.900 120.300 V 117.400 C 197.900 117.300 197.800 117.400 197.900 117.400 H 203.700 C 203.800 117.400 203.700 117.300 203.700 117.400 V 120.300 C 203.700 120.355 203.745 120.400 203.800 120.400 H 209.800 C 209.855 120.400 209.900 120.355 209.900 120.300 V 117.400 C 209.900 117.300 209.800 117.400 209.900 117.400 H 215.700 C 215.800 117.400 215.700 117.300 215.700 117.400 V 120.300 C 215.700 120.355 215.745 120.400 215.800 120.400 H 221.800 C 221.855 120.400 221.900 120.355 221.900 120.300 V 117.400 C 221.900 117.300 221.800 117.400 221.900 117.400 H 227.700 C 227.800 117.400 227.700 117.300 227.700 117.400 V 120.300 C 227.700 120.355 227.745 120.400 227.800 120.400 H 233.800 C 233.855 120.400 233.900 120.355 233.900 120.300 V 117.400 C 233.900 117.300 233.800 117.400 233.900 117.400 H 239.700 C 239.800 117.400 239.700 117.300 239.700 117.400 V 120.300 C 239.700 120.355 239.745 120.400 239.800 120.400 H 245.800 C 245.855 120.400 245.900 120.355 245.900 120.300 V 117.400 C 245.900 117.300 245.800 117.400 245.900 117.400 H 251.700 C 251.800 117.400 251.700 117.300 251.700 117.400 V 120.300 C 251.700 120.355 251.745 120.400 251.800 120.400 H 257.800 C 257.855 120.400 257.900 120.355 257.900 120.300 V 117.400 C 257.900 117.300 257.800 117.400 257.900 117.400 H 263.700 C 263.800 117.400 263.700 117.300 263.700 117.400 V 120.300 C 263.700 120.355 263.745 120.400 263.800 120.400 H 269.800 C 269.855 120.400 269.900 120.355 269.900 120.300 V 117.400 C 269.900 117.300 269.800 117.400 269.900 117.400 H 275.700 C 275.800 117.400 275.700 117.300 275.700 117.400 V 120.300 C 275.700 120.355 275.745 120.400 275.800 120.400 H 281.800 C 281.855 120.400 281.900 120.355 281.900 120.300 V 117.400 C 281.900 117.300 281.800 117.400 281.900 117.400 H 287.700 C 287.800 117.400 287.700 117.300 287.700 117.400 V 120.300 C 287.700 120.355 287.745 120.400 287.800 120.400 H 293.800 C 293.855 120.400 293.900 120.355 293.900 120.300 V 117.400 C 293.900 117.300 293.800 117.400 293.900 117.400 H 299.700 C 299.800 117.400 299.700 117.300 299.700 117.400 V 120.300 C 299.700 120.355 299.745 120.400 299.800 120.400 H 305.800 C 305.855 120.400 305.900 120.355 305.900 120.300 V 117.400 C 305.900 117.300 305.800 117.400 305.900 117.400 H 311.700 C 311.800 117.400 311.700 117.300 311.700 117.400 V 120.300 C 311.700 120.355 311.745 120.400 311.800 120.400 H 317.800 C 317.855 120.400 317.900 120.355 317.900 120.300 V 117.400 C 317.900 117.300 317.800 117.400 317.900 117.400 H 323.700 C 323.800 117.400 323.700 117.300 323.700 117.400 V 120.300 C 323.700 120.355 323.745 120.400 323.800 120.400 H 329.800 C 329.855 120.400 329.900 120.355 329.900 120.300 V 117.400 C 329.900 117.300 329.800 117.400 329.900 117.400 H 335.700 C 335.800 117.400 335.700 117.300 335.700 117.400 V 120.300 C 335.700 120.355 335.745 120.400 335.800 120.400 H 341.800 C 341.855 120.400 341.900 120.355 341.900 120.300 V 117.400 C 341.900 117.300 341.800 117.400 341.900 117.400 H 348.800 C 348.855 117.400 348.900 117.355 348.900 117.300 V 107.400 C 348.900 107.300 348.800 107.400 348.900 107.400 H 351.800 C 351.855 107.400 351.900 107.355 351.900 107.300 V 101.300 C 351.900 101.245 351.855 101.200 351.800 101.200 H 348.900 C 348.800 101.200 348.900 101.300 348.900 101.200 V 95.400 C 348.900 95.300 348.800 95.400 348.900 95.400 H 351.800 C 351.855 95.400 351.900 95.355 351.900 95.300 V 89.300 C 351.900 89.245 351.855 89.200 351.800 89.200 H 348.900 C 348.800 89.200 348.900 89.300 348.900 89.200 V 83.400 C 348.900 83.300 348.800 83.400 348.900 83.400 H 351.800 C 351.855 83.400 351.900 83.355 351.900 83.300 V 77.300 C 351.900 77.245 351.855 77.200 351.800 77.200 H 348.900 C 348.800 77.200 348.900 77.300 348.900 77.200 V 71.400 C 348.900 71.300 348.800 71.400 348.900 71.400 H 351.800 C 351.855 71.400 351.900 71.355 351.900 71.300 V 65.300 C 351.900 65.245 351.855 65.200 351.800 65.200 H 348.900 C 348.800 65.200 348.900 65.300 348.900 65.200 V 59.400 C 348.900 59.300 348.800 59.400 348.900 59.400 H 351.800 C 351.855 59.400 351.900 59.355 351.900 59.300 V 53.300 C 351.900 53.245 351.855 53.200 351.800 53.200 H 348.900 C 348.800 53.200 348.900 53.300 348.900 53.200 V 43.300 C 348.900 43.245 348.855 43.200 348.800 43.200 H 341.900 C 341.800 43.200 341.900 43.300 341.900 43.200 V 40.300 C 341.900 40.245 341.855 40.200 341.800 40.200 H 335.800 C 335.745 40.200 335.700 40.245 335.700 40.300 V 43.200 C 335.700 43.300 335.800 43.200 335.700 43.200 H 329.900 C 329.800 43.200 329.900 43.300 329.900 43.200 V 40.300 C 329.900 40.245 329.855 40.200 329.800 40.200 H 323.800 C 323.745 40.200 323.700 40.245 323.700 40.300 V 43.200 C 323.700 43.300 323.800 43.200 323.700 43.200 H 317.900 C 317.800 43.200 317.900 43.300 317.900 43.200 V 40.300 C 317.900 40.245 317.855 40.200 317.800 40.200 H 311.800 C 311.745 40.200 311.700 40.245 311.700 40.300 V 43.200 C 311.700 43.300 311.800 43.200 311.700 43.200 H 305.900 C 305.800 43.200 305.900 43.300 305.900 43.200 V 40.300 C 305.900 40.245 305.855 40.200 305.800 40.200 H 299.800 C 299.745 40.200 299.700 40.245 299.700 40.300 V 43.200 C 299.700 43.300 299.800 43.200 299.700 43.200 H 293.900 C 293.800 43.200 293.900 43.300 293.900 43.200 V 40.300 C 293.900 40.245 293.855 40.200 293.800 40.200 H 287.800 C 287.745 40.200 287.700 40.245 287.700 40.300 V 43.200 C 287.700 43.300 287.800 43.200 287.700 43.200 H 281.900 C 281.800 43.200 281.900 43.300 281.900 43.200 V 40.300 C 281.900 40.245 281.855 40.200 281.800 40.200 H 275.800 C 275.745 40.200 275.700 40.245 275.700 40.300 V 43.200 C 275.700 43.300 275.800 43.200 275.700 43.200 H 269.900 C 269.800 43.200 269.900 43.300 269.900 43.200 V 40.300 C 269.900 40.245 269.855 40.200 269.800 40.200 H 263.800 C 263.745 40.200 263.700 40.245 263.700 40.300 V 43.200 C 263.700 43.300 263.800 43.200 263.700 43.200 H 257.900 C 257.800 43.200 257.900 43.300 257.900 43.200 V 40.300 C 257.900 40.245 257.855 40.200 257.800 40.200 H 251.800 C 251.745 40.200 251.700 40.245 251.700 40.300 V 43.200 C 251.700 43.300 251.800 43.200 251.700 43.200 H 245.900 C 245.800 43.200 245.900 43.300 245.900 43.200 V 40.300 C 245.900 40.245 245.855 40.200 245.800 40.200 H 239.800 C 239.745 40.200 239.700 40.245 239.700 40.300 V 43.200 C 239.700 43.300 239.800 43.200 239.700 43.200 H 233.900 C 233.800 43.200 233.900 43.300 233.900 43.200 V 40.300 C 233.900 40.245 233.855 40.200 233.800 40.200 H 227.800 C 227.745 40.200 227.700 40.245 227.700 40.300 V 43.200 C 227.700 43.300 227.800 43.200 227.700 43.200 H 221.900 C 221.800 43.200 221.900 43.300 221.900 43.200 V 40.300 C 221.900 40.245 221.855 40.200 221.800 40.200 H 215.800 C 215.745 40.200 215.700 40.245 215.700 40.300 V 43.200 C 215.700 43.300 215.800 43.200 215.700 43.200 H 209.900 C 209.800 43.200 209.900 43.300 209.900 43.200 V 40.300 C 209.900 40.245 209.855 40.200 209.800 40.200 H 203.800 C 203.745 40.200 203.700 40.245 203.700 40.300 V 43.200 C 203.700 43.300 203.800 43.200 203.700 43.200 H 197.900 C 197.800 43.200 197.900 43.300 197.900 43.200 V 40.300 C 197.900 40.245 197.855 40.200 197.800 40.200 H 191.800 C 191.745 40.200 191.700 40.245 191.700 40.300 V 43.200 C 191.700 43.300 191.800 43.200 191.700 43.200 H 184.800 C 184.745 43.200 184.700 43.245 184.700 43.300 V 53.200 C 184.700 53.300 184.800 53.200 184.700 53.200 H 181.800 C 181.745 53.200 181.700 53.245 181.700 53.300 V 59.300 C 181.700 59.355 181.745 59.400 181.800 59.400 H 184.700 C 184.800 59.400 184.700 59.300 184.700 59.400 V 65.200 C 184.700 65.300 184.800 65.200 184.700 65.200 H 181.800 C 181.745 65.200 181.700 65.245 181.700 65.300 V 71.300 C 181.700 71.355 181.745 71.400 181.800 71.400 H 184.700 C 184.800 71.400 184.700 71.300 184.700 71.400 V 77.200 C 184.700 77.300 184.800 77.200 184.700 77.200 H 181.800 C 181.745 77.200 181.700 77.245 181.700 77.300 V 83.300 C 181.700 83.355 181.745 83.400 181.800 83.400 H 184.700 C 184.800 83.400 184.700 83.300 184.700 83.400 V 89.200 C 184.700 89.300 184.800 89.200 184.700 89.200 H 181.800 C 181.745 89.200 181.700 89.245 181.700 89.300 V 95.300 C 181.700 95.355 181.745 95.400 181.800 95.400 H 184.700 C 184.800 95.400 184.700 95.300 184.700 95.400 V 101.200 C 184.700 101.300 184.800 101.200 184.700 101.200 H 181.800 C 181.745 101.200 181.700 101.245 181.700 101.300 V 107.300 C 181.700 107.355 181.745 107.400 181.800 107.400 H 184.700 C 184.800 107.400 184.700 107.300 184.700 107.400 V 117.300 C 184.700 117.355 184.745 117.400 184.800 117.400 Z" stroke="rgb(0,0,0)" stroke-width="0.20" />
</g>
<g id="p-10" style="fill:none;stroke-linecap:round;stroke-linejoin:round;">
  <path d="M 13.100 117.400 H 20.000 C 20.100 117.400 20.000 117.300 20.000 117.400 V 120.300 C 20.000 120.355 20.045 120.400 20.100 120.400 H 26.100 C 26.155 120.400 26.200 120.355 26.200 120.300 V 117.400 C 26.200 117.300 26.100 117.400 26.200 117.400 H 32.000 C 32.100 117.400 32.000 117.300 32.000 117.400 V 120.300 C 32.000 120.355 32.045 120.400 32.100 120.400 H 38.100 C 38.155 120.400 38.200 120.355 38.200 120.300 V 117.400 C 38.200 117.300 38.100 117.400 38.200 117.400 H 44.000 C 44.100 117.400 44.000 117.300 44.000 117.400 V 120.300 C 44.000 120.355 44.045 120.400 44.100 120.400 H 50.100 C 50.155 120.400 50.200 120.355 50.200 120.300 V 117.400 C 50.200 117.300 50.100 117.400 50.200 117.400 H 56.000 C 56.100 117.400 56.000 117.300 56.000 117.400 V 120.300 C 56.000 120.355 56.045 120.400 56.100 120.400 H 62.100 C 62.155 120.400 62.200 120.355 62.200 120.300 V 117.400 C 62.200 117.300 62.100 117.400 62.200 117.400 H 68.000 C 68.100 117.400 68.000 117.300 68.000 117.400 V 120.300 C 68.000 120.355 68.045 120.400 68.100 120.400 H 74.100 C 74.155 120.400 74.200 120.355 74.200 120.300 V 117.400 C 74.200 117.300 74.100 117.400 74.200 117.400 H 80.000 C 80.100 117.400 80.000 117.300 80.000 117.400 V 120.300 C 80.000 120.355 80.045 120.400 80.100 120.400 H 86.100 C 86.155 120.400 86.200 120.355 86.200 120.300 V 117.400 C 86.200 117.300 86.100 117.400 86.200 117.400 H 92.000 C 92.100 117.400 92.000 117.300 92.000 117.400 V 120.300 C 92.000 120.355 92.045 120.400 92.100 120.400 H 98.100 C 98.155 120.400 98.200 120.355 98.200 120.300 V 117.400 C 98.200 117.300 98.100 117.400 98.200 117.400 H 104.000 C 104.100 117.400 104.000 117.300 104.000 117.400 V 120.300 C 104.000 120.355 104.045 120.400 104.100 120.400 H 110.100 C 110.155 120.400 110.200 120.355 110.200 120.300 V 117.400 C 110.200 117.300 110.100 117.400 110.200 117.400 H 116.000 C 116.100 117.400 116.000 117.300 116.000 117.400 V 120.300 C 116.000 120.355 116.045 120.400 116.100 120.400 H 122.100 C 122.155 120.400 122.200 120.355 122.200 120.300 V 117.400 C 122.200 117.300 122.100 117.400 122.200 117.400 H 128.000 C 128.100 117.400 128.000 117.300 128.000 117.400 V 120.300 C 128.000 120.355 128.045 120.400 128.100 120.400 H 134.100 C 134.155 120.400 134.200 120.355 134.200 120.300 V 117.400 C 134.200 117.300 134.100 117.400 134.200 117.400 H 140.000 C 140.100 117.400 140.000 117.300 140.000 117.400 V 120.300 C 140.000 120.355 140.045 120.400 140.100 120.400 H 146.100 C 146.155 120.400 146.200 120.355 146.200 120.300 V 117.400 C 146.200 117.300 146.100 117.400 146.200 117.400 H 152.000 C 152.100 117.400 152.000 117.300 152.000 117.400 V 120.300 C 152.000 120.355 152.045 120.400 152.100 120.400 H 158.100 C 158.155 120.400 158.200 120.355 158.200 120.300 V 117.400 C 158.200 117.300 158.100 117.400 158.200 117.400 H 164.000 C 164.100 117.400 164.000 117.300 164.000 117.400 V 120.300 C 164.000 120.355 164.045 120.400 164.100 120.400 H 170.100 C 170.155 120.400 170.200 120.355 170.200 120.300 V 117.400 C 170.200 117.300 170.100 117.400 170.200 117.400 H 177.100 C 177.155 117.400 177.200 117.355 177.200 117.300 V 107.400 C 177.200 107.300 177.100 107.400 177.200 107.400 H 180.100 C 180.155 107.400 180.200 107.355 180.200 107.300 V 101.300 C 180.200 101.245 180.155 101.200 180.100 101.200 H 177.200 C 177.100 101.200 177.200 101.300 177.200 101.200 V 95.400 C 177.200 95.300 177.100 95.400 177.200 95.400 H 180.100 C 180.155 95.400 180.200 95.355 180.200 95.300 V 89.300 C 180.200 89.245 180.155 89.200 180.100 89.200 H 177.200 C 177.100 89.200 177.200 89.300 177.200 89.200 V 83.400 C 177.200 83.300 177.100 83.400 177.200 83.400 H 180.100 C 180.155 83.400 180.200 83.355 180.200 83.300 V 77.300 C 180.200 77.245 180.155 77.200 180.100 77.200 H 177.200 C 177.100 77.200 177.200 77.300 177.200 77.200 V 71.400 C 177.200 71.300 177.100 71.400 177.200 71.400 H 180.100 C 180.155 71.400 180.200 71.355 180.200 71.300 V 65.300 C 180.200 65.245 180.155 65.200 180.100 65.200 H 177.200 C 177.100 65.200 177.200 65.300 177.200 65.200 V 59.400 C 177.200 59.300 177.100 59.400 177.200 59.400 H 180.100 C 180.155 59.400 180.200 59.355 180.200 59.300 V 53.300 C 180.200 53.245 180.155 53.200 180.100 53.200 H 177.200 C 177.100 53.200 177.200 53.300 177.200 53.200 V 43.300 C 177.200 43.245 177.155 43.200 177.100 43.200 H 170.200 C 170.100 43.200 170.200 43.300 170.200 43.200 V 40.300 C 170.200 40.245 170.155 40.200 170.100 40.200 H 164.100 C 164.045 40.200 164.000 40.245 164.000 40.300 V 43.200 C 164.000 43.300 164.100 43.200 164.000 43.200 H 158.200 C 158.100 43.200 158.200 43.300 158.200 43.200 V 40.300 C 158.200 40.245 158.155 40.200 158.100 40.200 H 152.100 C 152.045 40.200 152.000 40.245 152.000 40.300 V 43.200 C 152.000 43.300 152.100 43.200 152.000 43.200 H 146.200 C 146.100 43.200 146.200 43.300 146.200 43.200 V 40.300 C 146.200 40.245 146.155 40.200 146.100 40.200 H 140.100 C 140.045 40.200 140.000 40.245 140.000 40.300 V 43.200 C 140.000 43.300 140.100 43.200 140.000 43.200 H 134.200 C 134.100 43.200 134.200 43.300 134.200 43.200 V 40.300 C 134.200 40.245 134.155 40.200 134.100 40.200 H 128.100 C 128.045 40.200 128.000 40.245 128.000 40.300 V 43.200 C 128.000 43.300 128.100 43.200 128.000 43.200 H 122.200 C 122.100 43.200 122.200 43.300 122.200 43.200 V 40.300 C 122.200 40.245 122.155 40.200 122.100 40.200 H 116.100 C 116.045 40.200 116.000 40.245 116.000 40.300 V 43.200 C 116.000 43.300 116.100 43.200 116.000 43.200 H 110.200 C 110.100 43.200 110.200 43.300 110.200 43.200 V 40.300 C 110.200 40.245 110.155 40.200 110.100 40.200 H 104.100 C 104.045 40.200 104.000 40.245 104.000 40.300 V 43.200 C 104.000 43.300 104.100 43.200 104.000 43.200 H 98.200 C 98.100 43.200 98.200 43.300 98.200 43.200 V 40.300 C 98.200 40.245 98.155 40.200 98.100 40.200 H 92.100 C 92.045 40.200 92.000 40.245 92.000 40.300 V 43.200 C 92.000 43.300 92.100 43.200 92.000 43.200 H 86.200 C 86.100 43.200 86.200 43.300 86.200 43.200 V 40.300 C 86.200 40.245 86.155 40.200 86.100 40.200 H 80.100 C 80.045 40.200 80.000 40.245 80.000 40.300 V 43.200 C 80.000 43.300 80.100 43.200 80.000 43.200 H 74.200 C 74.100 43.200 74.200 43.300 74.200 43.200 V 40.300 C 74.200 40.245 74.155 40.200 74.100 40.200 H 68.100 C 68.045 40.200 68.000 40.245 68.000 40.300 V 43.200 C 68.000 43.300 68.100 43.200 68.000 43.200 H 62.200 C 62.100 43.200 62.200 43.300 62.200 43.200 V 40.300 C 62.200 40.245 62.155 40.200 62.100 40.200 H 56.100 C 56.045 40.200 56.000 40.245 56.000 40.300 V 43.200 C 56.000 43.300 56.100 43.200 56.000 43.200 H 50.200 C 50.100 43.200 50.200 43.300 50.200 43.200 V 40.300 C 50.200 40.245 50.155 40.200 50.100 40.200 H 44.100 C 44.045 40.200 44.000 40.245 44.000 40.300 V 43.200 C 44.000 43.300 44.100 43.200 44.000 43.200 H 38.200 C 38.100 43.200 38.200 43.300 38.200 43.200 V 40.300 C 38.200 40.245 38.155 40.200 38.100 40.200 H 32.100 C 32.045 40.200 32.000 40.245 32.000 40.300 V 43.200 C 32.000 43.300 32.100 43.200 32.000 43.200 H 26.200 C 26.100 43.200 26.200 43.300 26.200 43.200 V 40.300 C 26.200 40.245 26.155 40.200 26.100 40.200 H 20.100 C 20.045 40.200 20.000 40.245 20.000 40.300 V 43.200 C 20.000 43.300 20.100 43.200 20.000 43.200 H 13.100 C 13.045 43.200 13.000 43.245 13.000 43.300 V 53.200 C 13.000 53.300 13.100 53.200 13.000 53.200 H 10.100 C 10.045 53.200 10.000 53.245 10.000 53.300 V 59.300 C 10.000 59.355 10.045 59.400 10.100 59.400 H 13.000 C 13.100 59.400 13.000 59.300 13.000 59.400 V 65.200 C 13.000 65.300 13.100 65.200 13.000 65.200 H 10.100 C 10.045 65.200 10.000 65.245 10.000 65.300 V 71.300 C 10.000 71.355 10.045 71.400 10.100 71.400 H 13.000 C 13.100 71.400 13.000 71.300 13.000 71.400 V 77.200 C 13.000 77.300 13.100 77.200 13.000 77.200 H 10.100 C 10.045 77.200 10.000 77.245 10.000 77.300 V 83.300 C 10.000 83.355 10.045 83.400 10.100 83.400 H 13.000 C 13.100 83.400 13.000 83.300 13.000 83.400 V 89.200 C 13.000 89.300 13.100 89.200 13.000 89.200 H 10.100 C 10.045 89.200 10.000 89.245 10.000 89.300 V 95.300 C 10.000 95.355 10.045 95.400 10.100 95.400 H 13.000 C 13.100 95.400 13.000 95.300 13.000 95.400 V 101.200 C 13.000 101.300 13.100 101.200 13.000 101.200 H 10.100 C 10.045 101.200 10.000 101.245 10.000 101.300 V 107.300 C 10.000 107.355 10.045 107.400 10.100 107.400 H 13.000 C 13.100 107.400 13.000 107.300 13.000 107.400 V 117.300 C 13.000 117.355 13.045 117.400 13.100 117.400 Z" stroke="rgb(0,0,0)" stroke-width="0.20" />
</g>
<g id="p-11" style="fill:none;stroke-linecap:round;stroke-linejoin:round;">
  <path d="M 17.600 34.200 C 17.600 34.488 17.517 34.769 17.362 35.011 C 17.206 35.253 16.985 35.445 16.723 35.564 C 16.462 35.684 16.171 35.726 15.887 35.685 C 15.602 35.644 15.335 35.522 15.118 35.334 C 14.900 35.145 14.742 34.899 14.661 34.623 C 14.580 34.347 14.580 34.053 14.661 33.777 C 14.742 33.501 14.900 33.255 15.118 33.066 C 15.335 32.878 15.602 32.756 15.887 32.715 C 16.171 32.674 16.462 32.716 16.723 32.836 C 16.985 32.955 17.206 33.147 17.362 33.389 C 17.517 33.631 17.600 33.912 17.600 34.200 Z" stroke="rgb(0,0,255)" stroke-width="0.20" />
  <path d="M 16.100 38.700 C 16.907 38.700 17.701 38.487 18.400 38.084 C 19.099 37.680 19.680 37.099 20.084 36.400 C 20.487 35.701 20.700 34.907 20.700 34.100 C 20.700 33.293 20.487 32.499 20.084 31.800 C 19.680 31.101 19.099 30.520 18.400 30.116 C 17.701 29.713 16.907 29.500 16.100 29.500 C 16.155 29.500 16.200 29.545 16.200 29.600 V 26.600 C 16.200 26.545 16.155 26.500 16.100 26.500 H 13.200 C 13.100 26.500 13.200 26.600 13.200 26.500 V 23.700 C 13.200 23.600 13.100 23.700 13.200 23.700 H 16.100 C 16.155 23.700 16.200 23.655 16.200 23.600 V 20.600 C 16.200 20.545 16.155 20.500 16.100 20.500 H 13.100 C 12.556 20.500 12.021 20.643 11.550 20.915 C 11.079 21.187 10.687 21.579 10.415 22.050 C 10.143 22.521 10.000 23.056 10.000 23.600 V 32.600 C 10.000 33.671 10.282 34.723 10.817 35.650 C 11.353 36.577 12.123 37.347 13.050 37.883 C 13.977 38.418 15.029 38.700 16.100 38.700 Z" stroke="rgb(0,0,0)" stroke-width="0.20" />
  <path d="M 16.300 14.500 C 16.300 14.212 16.383 13.931 16.538 13.689 C 16.694 13.447 16.915 13.255 17.177 13.136 C 17.438 13.016 17.729 12.974 18.013 13.015 C 18.298 13.056 18.565 13.178 18.782 13.366 C 19.000 13.555 19.158 13.801 19.239 14.077 C 19.320 14.353 19.320 14.647 19.239 14.923 C 19.158 15.199 19.000 15.445 18.782 15.634 C 18.565 15.822 18.298 15.944 18.013 15.985 C 17.729 16.026 17.438 15.984 17.177 15.864 C 16.915 15.745 16.694 15.553 16.538 15.311 C 16.383 15.069 16.300 14.788 16.300 14.500 Z" stroke="rgb(0,0,255)" stroke-width="0.20" />
  <path d="M 17.800 10.000 C 16.993 10.000 16.199 10.213 15.500 10.616 C 14.801 11.020 14.220 11.601 13.816 12.300 C 13.413 12.999 13.200 13.793 13.200 14.600 C 13.200 15.407 13.413 16.201 13.816 16.900 C 14.220 17.599 14.801 18.180 15.500 18.584 C 16.199 18.987 16.993 19.200 17.800 19.200 C 17.745 19.200 17.700 19.155 17.700 19.100 V 22.100 C 17.700 22.155 17.745 22.200 17.800 22.200 H 20.700 C 20.800 22.200 20.700 22.100 20.700 22.200 V 25.000 C 20.700 25.100 20.800 25.000 20.700 25.000 H 17.800 C 17.745 25.000 17.700 25.045 17.700 25.100 V 28.100 C 17.700 28.155 17.745 28.200 17.800 28.200 H 20.800 C 21.344 28.200 21.879 28.057 22.350 27.785 C 22.821 27.513 23.213 27.121 23.485 26.650 C 23.757 26.179 23.900 25.644 23.900 25.100 V 16.100 C 23.900 15.029 23.618 13.977 23.083 13.050 C 22.547 12.123 21.777 11.353 20.850 10.817 C 19.923 10.282 18.871 10.000 17.800 10.000 Z" stroke="rgb(0,0,0)" stroke-width="0.20" />
  <path d="M 33.000 34.200 C 33.000 34.488 32.917 34.769 32.762 35.011 C 32.606 35.253 32.385 35.445 32.123 35.564 C 31.862 35.684 31.571 35.726 31.287 35.685 C 31.002 35.644 30.735 35.522 30.518 35.334 C 30.300 35.145 30.142 34.899 30.061 34.623 C 29.980 34.347 29.980 34.053 30.061 33.777 C 30.142 33.501 30.300 33.255 30.518 33.066 C 30.735 32.878 31.002 32.756 31.287 32.715 C 31.571 32.674 31.862 32.716 32.123 32.836 C 32.385 32.955 32.606 33.147 32.762 33.389 C 32.917 33.631 33.000 33.912 33.000 34.200 Z" stroke="rgb(0,0,255)" stroke-width="0.20" />
  <path d="M 31.500 38.700 C 32.307 38.700 33.101 38.487 33.800 38.084 C 34.499 37.680 35.080 37.099 35.484 36.400 C 35.887 35.701 36.100 34.907 36.100 34.100 C 36.100 33.293 35.887 32.499 35.484 31.800 C 35.080 31.101 34.499 30.520 33.800 30.116 C 33.101 29.713 32.307 29.500 31.500 29.500 C 31.555 29.500 31.600 29.545 31.600 29.600 V 26.600 C 31.600 26.545 31.555 26.500 31.500 26.500 H 28.600 C 28.500 26.500 28.600 26.600 28.600 26.500 V 23.700 C 28.600 23.600 28.500 23.700 28.600 23.700 H 31.500 C 31.555 23.700 31.600 23.655 31.600 23.600 V 20.600 C 31.600 20.545 31.555 20.500 31.500 20.500 H 28.500 C 27.956 20.500 27.421 20.643 26.950 20.915 C 26.479 21.187 26.087 21.579 25.815 22.050 C 25.543 22.521 25.400 23.056 25.400 23.600 V 32.600 C 25.400 33.671 25.682 34.723 26.217 35.650 C 26.753 36.577 27.523 37.347 28.450 37.883 C 29.377 38.418 30.429 38.700 31.500 38.700 Z" stroke="rgb(0,0,0)" stroke-width="0.20" />
  <path d="M 31.700 14.500 C 31.700 14.212 31.783 13.931 31.938 13.689 C 32.094 13.447 32.315 13.255 32.577 13.136 C 32.838 13.016 33.129 12.974 33.413 13.015 C 33.698 13.056 33.965 13.178 34.182 13.366 C 34.400 13.555 34.558 13.801 34.639 14.077 C 34.720 14.353 34.720 14.647 34.639 14.923 C 34.558 15.199 34.400 15.445 34.182 15.634 C 33.965 15.822 33.698 15.944 33.413 15.985 C 33.129 16.026 32.838 15.984 32.577 15.864 C 32.315 15.745 32.094 15.553 31.938 15.311 C 31.783 15.069 31.700 14.788 31.700 14.500 Z" stroke="rgb(0,0,255)" stroke-width="0.20" />
  <path d="M 33.200 10.000 C 32.393 10.000 31.599 10.213 30.900 10.616 C 30.201 11.020 29.620 11.601 29.216 12.300 C 28.813 12.999 28.600 13.793 28.600 14.600 C 28.600 15.407 28.813 16.201 29.216 16.900 C 29.620 17.599 30.201 18.180 30.900 18.584 C 31.599 18.987 32.393 19.200 33.200 19.200 C 33.145 19.200 33.100 19.155 33.100 19.100 V 22.100 C 33.100 22.155 33.145 22.200 33.200 22.200 H 36.100 C 36.200 22.200 36.100 22.100 36.100 22.200 V 25.000 C 36.100 25.100 36.200 25.000 36.100 25.000 H 33.200 C 33.145 25.000 33.100 25.045 33.100 25.100 V 28.100 C 33.100 28.155 33.145 28.200 33.200 28.200 H 36.200 C 36.744 28.200 37.279 28.057 37.750 27.785 C 38.221 27.513 38.613 27.121 38.885 26.650 C 39.157 26.179 39.300 25.644 39.300 25.100 V 16.100 C 39.300 15.029 39.018 13.977 38.483 13.050 C 37.947 12.123 37.177 11.353 36.250 10.817 C 35.323 10.282 34.271 10.000 33.200 10.000 Z" stroke="rgb(0,0,0)" stroke-width="0.20" />
  <path d="M 48.400 34.200 C 48.400 34.488 48.317 34.769 48.162 35.011 C 48.006 35.253 47.785 35.445 47.523 35.564 C 47.262 35.684 46.971 35.726 46.687 35.685 C 46.402 35.644 46.135 35.522 45.918 35.334 C 45.700 35.145 45.542 34.899 45.461 34.623 C 45.380 34.347 45.380 34.053 45.461 33.777 C 45.542 33.501 45.700 33.255 45.918 33.066 C 46.135 32.878 46.402 32.756 46.687 32.715 C 46.971 32.674 47.262 32.716 47.523 32.836 C 47.785 32.955 48.006 33.147 48.162 33.389 C 48.317 33.631 48.400 33.912 48.400 34.200 Z" stroke="rgb(0,0,255)" stroke-width="0.20" />
  <path d="M 46.900 38.700 C 47.707 38.700 48.501 38.487 49.200 38.084 C 49.899 37.680 50.480 37.099 50.884 36.400 C 51.287 35.701 51.500 34.907 51.500 34.100 C 51.500 33.293 51.287 32.499 50.884 31.800 C 50.480 31.101 49.899 30.520 49.200 30.116 C 48.501 29.713 47.707 29.500 46.900 29.500 C 46.955 29.500 47.000 29.545 47.000 29.600 V 26.600 C 47.000 26.545 46.955 26.500 46.900 26.500 H 44.000 C 43.900 26.500 44.000 26.600 44.000 26.500 V 23.700 C 44.000 23.600 43.900 23.700 44.000 23.700 H 46.900 C 46.955 23.700 47.000 23.655 47.000 23.600 V 20.600 C 47.000 20.545 46.955 20.500 46.900 20.500 H 43.900 C 43.356 20.500 42.821 20.643 42.350 20.915 C 41.879 21.187 41.487 21.579 41.215 22.050 C 40.943 22.521 40.800 23.056 40.800 23.600 V 32.600 C 40.800 33.671 41.082 34.723 41.617 35.650 C 42.153 36.577 42.923 37.347 43.850 37.883 C 44.777 38.418 45.829 38.700 46.900 38.700 Z" stroke="rgb(0,0,0)" stroke-width="0.20" />
  <path d="M 47.100 14.500 C 47.100 14.212 47.183 13.931 47.338 13.689 C 47.494 13.447 47.715 13.255 47.977 13.136 C 48.238 13.016 48.529 12.974 48.813 13.015 C 49.098 13.056 49.365 13.178 49.582 13.366 C 49.800 13.555 49.958 13.801 50.039 14.077 C 50.120 14.353 50.120 14.647 50.039 14.923 C 49.958 15.199 49.800 15.445 49.582 15.634 C 49.365 15.822 49.098 15.944 48.813 15.985 C 48.529 16.026 48.238 15.984 47.977 15.864 C 47.715 15.745 47.494 15.553 47.338 15.311 C 47.183 15.069 47.100 14.788 47.100 14.500 Z" stroke="rgb(0,0,255)" stroke-width="0.20" />
  <path d="M 48.600 10.000 C 47.793 10.000 46.999 10.213 46.300 10.616 C 45.601 11.020 45.020 11.601 44.616 12.300 C 44.213 12.999 44.000 13.793 44.000 14.600 C 44.000 15.407 44.213 16.201 44.616 16.900 C 45.020 17.599 45.601 18.180 46.300 18.584 C 46.999 18.987 47.793 19.200 48.600 19.200 C 48.545 19.200 48.500 19.155 48.500 19.100 V 22.100 C 48.500 22.155 48.545 22.200 48.600 22.200 H 51.500 C 51.600 22.200 51.500 22.100 51.500 22.200 V 25.000 C 51.500 25.100 51.600 25.000 51.500 25.000 H 48.600 C 48.545 25.000 48.500 25.045 48.500 25.100 V 28.100 C 48.500 28.155 48.545 28.200 48.600 28.200 H 51.600 C 52.144 28.200 52.679 28.057 53.150 27.785 C 53.621 27.513 54.013 27.121 54.285 26.650 C 54.557 26.179 54.700 25.644 54.700 25.100 V 16.100 C 54.700 15.029 54.418 13.977 53.883 13.050 C 53.347 12.123 52.577 11.353 51.650 10.817 C 50.723 10.282 49.671 10.000 48.600 10.000 Z" stroke="rgb(0,0,0)" stroke-width="0.20" />
  <path d="M 63.800 34.200 C 63.800 34.488 63.717 34.769 63.562 35.011 C 63.406 35.253 63.185 35.445 62.923 35.564 C 62.662 35.684 62.371 35.726 62.087 35.685 C 61.802 35.644 61.535 35.522 61.318 35.334 C 61.100 35.145 60.942 34.899 60.861 34.623 C 60.780 34.347 60.780 34.053 60.861 33.777 C 60.942 33.501 61.100 33.255 61.318 33.066 C 61.535 32.878 61.802 32.756 62.087 32.715 C 62.371 32.674 62.662 32.716 62.923 32.836 C 63.185 32.955 63.406 33.147 63.562 33.389 C 63.717 33.631 63.800 33.912 63.800 34.200 Z" stroke="rgb(0,0,255)" stroke-width="0.20" />
  <path d="M 62.300 38.700 C 63.107 38.700 63.901 38.487 64.600 38.084 C 65.299 37.680 65.880 37.099 66.284 36.400 C 66.687 35.701 66.900 34.907 66.900 34.100 C 66.900 33.293 66.687 32.499 66.284 31.800 C 65.880 31.101 65.299 30.520 64.600 30.116 C 63.901 29.713 63.107 29.500 62.300 29.500 C 62.355 29.500 62.400 29.545 62.400 29.600 V 26.600 C 62.400 26.545 62.355 26.500 62.300 26.500 H 59.400 C 59.300 26.500 59.400 26.600 59.400 26.500 V 23.700 C 59.400 23.600 59.300 23.700 59.400 23.700 H 62.300 C 62.355 23.700 62.400 23.655 62.400 23.600 V 20.600 C 62.400 20.545 62.355 20.500 62.300 20.500 H 59.300 C 58.756 20.500 58.221 20.643 57.750 20.915 C 57.279 21.187 56.887 21.579 56.615 22.050 C 56.343 22.521 56.200 23.056 56.200 23.600 V 32.600 C 56.200 33.671 56.482 34.723 57.017 35.650 C 57.553 36.577 58.323 37.347 59.250 37.883 C 60.177 38.418 61.229 38.700 62.300 38.700 Z" stroke="rgb(0,0,0)" stroke-width="0.20" />
  <path d="M 62.500 14.500 C 62.500 14.212 62.583 13.931 62.738 13.689 C 62.894 13.447 63.115 13.255 63.377 13.136 C 63.638 13.016 63.929 12.974 64.213 13.015 C 64.498 13.056 64.765 13.178 64.982 13.366 C 65.200 13.555 65.358 13.801 65.439 14.077 C 65.520 14.353 65.520 14.647 65.439 14.923 C 65.358 15.199 65.200 15.445 64.982 15.634 C 64.765 15.822 64.498 15.944 64.213 15.985 C 63.929 16.026 63.638 15.984 63.377 15.864 C 63.115 15.745 62.894 15.553 62.738 15.311 C 62.583 15.069 62.500 14.788 62.500 14.500 Z" stroke="rgb(0,0,255)" stroke-width="0.20" />
  <path d="M 64.000 10.000 C 63.193 10.000 62.399 10.213 61.700 10.616 C 61.001 11.020 60.420 11.601 60.016 12.300 C 59.613 12.999 59.400 13.793 59.400 14.600 C 59.400 15.407 59.613 16.201 60.016 16.900 C 60.420 17.599 61.001 18.180 61.700 18.584 C 62.399 18.987 63.193 19.200 64.000 19.200 C 63.945 19.200 63.900 19.155 63.900 19.100 V 22.100 C 63.900 22.155 63.945 22.200 64.000 22.200 H 66.900 C 67.000 22.200 66.900 22.100 66.900 22.200 V 25.000 C 66.900 25.100 67.000 25.000 66.900 25.000 H 64.000 C 63.945 25.000 63.900 25.045 63.900 25.100 V 28.100 C 63.900 28.155 63.945 28.200 64.000 28.200 H 67.000 C 67.544 28.200 68.079 28.057 68.550 27.785 C 69.021 27.513 69.413 27.121 69.685 26.650 C 69.957 26.179 70.100 25.644 70.100 25.100 V 16.100 C 70.100 15.029 69.818 13.977 69.283 13.050 C 68.747 12.123 67.977 11.353 67.050 10.817 C 66.123 10.282 65.071 10.000 64.000 10.000 Z" stroke="rgb(0,0,0)" stroke-width="0.20" />
  <path d="M 79.200 34.200 C 79.200 34.488 79.117 34.769 78.962 35.011 C 78.806 35.253 78.585 35.445 78.323 35.564 C 78.062 35.684 77.771 35.726 77.487 35.685 C 77.202 35.644 76.935 35.522 76.718 35.334 C 76.500 35.145 76.342 34.899 76.261 34.623 C 76.180 34.347 76.180 34.053 76.261 33.777 C 76.342 33.501 76.500 33.255 76.718 33.066 C 76.935 32.878 77.202 32.756 77.487 32.715 C 77.771 32.674 78.062 32.716 78.323 32.836 C 78.585 32.955 78.806 33.147 78.962 33.389 C 79.117 33.631 79.200 33.912 79.200 34.200 Z" stroke="rgb(0,0,255)" stroke-width="0.20" />
  <path d="M 77.700 38.700 C 78.507 38.700 79.301 38.487 80.000 38.084 C 80.699 37.680 81.280 37.099 81.684 36.400 C 82.087 35.701 82.300 34.907 82.300 34.100 C 82.300 33.293 82.087 32.499 81.684 31.800 C 81.280 31.101 80.699 30.520 80.000 30.116 C 79.301 29.713 78.507 29.500 77.700 29.500 C 77.755 29.500 77.800 29.545 77.800 29.600 V 26.600 C 77.800 26.545 77.755 26.500 77.700 26.500 H 74.800 C 74.700 26.500 74.800 26.600 74.800 26.500 V 23.700 C 74.800 23.600 74.700 23.700 74.800 23.700 H 77.700 C 77.755 23.700 77.800 23.655 77.800 23.600 V 20.600 C 77.800 20.545 77.755 20.500 77.700 20.500 H 74.700 C 74.156 20.500 73.621 20.643 73.150 20.915 C 72.679 21.187 72.287 21.579 72.015 22.050 C 71.743 22.521 71.600 23.056 71.600 23.600 V 32.600 C 71.600 33.671 71.882 34.723 72.417 35.650 C 72.953 36.577 73.723 37.347 74.650 37.883 C 75.577 38.418 76.629 38.700 77.700 38.700 Z" stroke="rgb(0,0,0)" stroke-width="0.20" />
  <path d="M 77.900 14.500 C 77.900 14.212 77.983 13.931 78.138 13.689 C 78.294 13.447 78.515 13.255 78.777 13.136 C 79.038 13.016 79.329 12.974 79.613 13.015 C 79.898 13.056 80.165 13.178 80.382 13.366 C 80.600 13.555 80.758 13.801 80.839 14.077 C 80.920 14.353 80.920 14.647 80.839 14.923 C 80.758 15.199 80.600 15.445 80.382 15.634 C 80.165 15.822 79.898 15.944 79.613 15.985 C 79.329 16.026 79.038 15.984 78.777 15.864 C 78.515 15.745 78.294 15.553 78.138 15.311 C 77.983 15.069 77.900 14.788 77.900 14.500 Z" stroke="rgb(0,0,255)" stroke-width="0.20" />
  <path d="M 79.400 10.000 C 78.593 10.000 77.799 10.213 77.100 10.616 C 76.401 11.020 75.820 11.601 75.416 12.300 C 75.013 12.999 74.800 13.793 74.800 14.600 C 74.800 15.407 75.013 16.201 75.416 16.900 C 75.820 17.599 76.401 18.180 77.100 18.584 C 77.799 18.987 78.593 19.200 79.400 19.200 C 79.345 19.200 79.300 19.155 79.300 19.100 V 22.100 C 79.300 22.155 79.345 22.200 79.400 22.200 H 82.300 C 82.400 22.200 82.300 22.100 82.300 22.200 V 25.000 C 82.300 25.100 82.400 25.000 82.300 25.000 H 79.400 C 79.345 25.000 79.300 25.045 79.300 25.100 V 28.100 C 79.300 28.155 79.345 28.200 79.400 28.200 H 82.400 C 82.944 28.200 83.479 28.057 83.950 27.785 C 84.421 27.513 84.813 27.121 85.085 26.650 C 85.357 26.179 85.500 25.644 85.500 25.100 V 16.100 C 85.500 15.029 85.218 13.977 84.683 13.050 C 84.147 12.123 83.377 11.353 82.450 10.817 C 81.523 10.282 80.471 10.000 79.400 10.000 Z" stroke="rgb(0,0,0)" stroke-width="0.20" />
</g>
</svg>